<svg xmlns="http://www.w3.org/2000/svg" version="1.0" width="5090" height="5380" preserveAspectRatio="xMidYMid meet"><rect id="backgroundrect" width="100%" height="100%" x="0" y="0" fill="none" stroke="none"/>












<g class="currentLayer" style=""><title>Layer 1</title><g id="layer101" fill="#1a0d0e" stroke="none" class="">
<path d="M2005 5195 c-204 -27 -336 -53 -550 -107 -88 -22 -178 -44 -200 -49 -52 -13 -314 -102 -413 -140 -79 -31 -132 -74 -132 -108 0 -10 7 -40 15 -67 8 -27 15 -56 15 -65 0 -17 6 -14 -175 -99 -147 -69 -195 -107 -195 -155 0 -43 33 -70 165 -139 61 -32 116 -64 124 -71 15 -14 13 -30 -19 -230 -15 -90 -12 -150 8 -168 29 -26 89 -21 157 14 91 46 308 142 419 184 116 45 119 44 130 -59 6 -58 3 -74 -33 -176 -69 -195 -104 -233 -251 -267 -99 -23 -120 -44 -120 -117 0 -30 5 -67 12 -81 6 -14 56 -60 110 -102 83 -65 103 -86 129 -137 16 -34 39 -77 49 -96 10 -19 28 -60 40 -90 23 -61 86 -164 138 -225 l34 -40 -7 -103 c-7 -112 2 -87 -124 -342 l-52 -105 -11 -150 c-8 -109 -8 -175 1 -242 6 -50 11 -147 11 -214 0 -113 3 -130 36 -233 20 -61 51 -138 69 -171 18 -33 38 -81 45 -108 15 -55 74 -127 124 -151 22 -10 61 -16 111 -16 71 0 81 -3 124 -33 25 -17 66 -42 91 -55 58 -29 164 -114 262 -209 122 -120 97 -113 363 -113 180 0 241 -3 280 -16 78 -24 214 -30 251 -11 63 33 154 161 154 219 0 51 49 177 97 250 83 127 92 215 36 360 -30 75 -127 208 -245 334 -103 110 -149 254 -96 304 48 45 129 73 225 80 104 7 117 15 162 90 25 43 26 51 26 190 0 135 -2 150 -27 213 -16 37 -28 78 -28 91 0 14 18 46 42 74 l43 50 95 7 c52 3 104 11 116 17 38 18 54 70 54 171 0 102 -1 100 87 245 35 57 56 106 68 160 17 72 72 201 109 253 26 38 21 104 -13 152 -24 35 -30 55 -34 120 -4 58 -12 88 -30 120 -31 52 -52 126 -39 139 13 13 82 -13 282 -108 178 -84 226 -98 270 -74 28 15 30 46 14 160 -9 58 -18 137 -20 175 l-5 70 73 42 c40 23 99 53 130 66 58 26 81 51 92 100 10 41 -32 73 -200 157 -78 39 -149 79 -158 89 -16 17 -16 24 -2 77 23 90 -2 133 -99 164 -22 7 -96 35 -164 62 -267 106 -680 200 -1041 238 -58 6 -136 15 -173 21 -38 5 -202 9 -365 8 -243 -2 -328 -6 -467 -24z m736 -777 c3 -4 39 -7 80 -6 41 1 97 -1 124 -5 28 -3 60 -6 72 -7 12 0 29 -7 38 -16 13 -13 28 -15 70 -10 60 7 155 -9 170 -29 6 -7 40 -14 77 -17 44 -2 73 -10 86 -21 10 -9 33 -17 50 -17 17 0 33 -4 36 -9 3 -5 17 -8 32 -8 14 0 30 -7 35 -14 5 -8 9 -10 9 -5 0 5 6 3 14 -3 13 -11 12 -17 0 -47 -21 -51 -10 -115 27 -150 53 -50 32 -67 -86 -70 -94 -2 -97 -3 -91 -13 3 -5 -1 -14 -9 -21 -8 -7 -15 -9 -15 -4 0 4 -10 -2 -22 -13 -21 -20 -44 -27 -76 -24 -7 0 -34 21 -60 46 -26 25 -55 48 -64 51 -10 3 -18 10 -18 15 0 5 -53 9 -121 9 -110 0 -126 -2 -180 -27 -32 -15 -59 -30 -59 -34 0 -3 -35 -4 -77 -2 -43 2 -120 3 -171 3 -76 0 -94 3 -99 16 -5 13 -7 13 -14 2 -5 -7 -6 17 -3 58 l7 72 -49 28 c-40 23 -60 29 -117 29 -54 1 -71 4 -78 18 -6 9 -18 17 -27 17 -21 1 -52 23 -52 38 0 12 -63 27 -78 19 -4 -3 -42 -9 -83 -13 -41 -3 -79 -11 -86 -16 -8 -6 -54 -7 -125 -2 -155 11 -178 8 -300 -45 l-47 -20 -28 22 c-62 47 -50 71 39 83 17 2 35 9 39 15 4 7 16 8 29 4 21 -7 67 9 81 28 3 5 27 10 53 12 26 2 70 10 99 19 57 16 104 24 184 31 29 3 64 10 78 15 15 6 50 10 78 11 29 0 73 4 100 8 26 4 47 4 47 -1 0 -4 18 -8 40 -8 22 0 40 4 40 10 0 19 388 17 401 -2z m1000 -398 c21 0 7 -28 -16 -32 -21 -5 -25 -1 -25 19 0 19 4 24 16 19 9 -3 20 -6 25 -6z" id="svg_1"/>
</g><g id="layer102" fill="#8e0c0c" stroke="none" class="">
<path d="M2005 5195 c-204 -27 -336 -53 -550 -107 -88 -22 -178 -44 -200 -49 -52 -13 -314 -102 -413 -140 -79 -31 -132 -74 -132 -108 0 -10 7 -40 15 -67 8 -27 15 -56 15 -65 0 -17 6 -14 -175 -99 -147 -69 -195 -107 -195 -155 0 -43 33 -70 165 -139 61 -32 116 -64 124 -71 15 -14 13 -30 -19 -230 -15 -90 -12 -150 8 -168 29 -26 89 -21 157 14 91 46 308 142 419 184 116 45 119 44 130 -59 6 -58 3 -74 -33 -176 -69 -195 -104 -233 -251 -267 -99 -23 -120 -44 -120 -117 0 -30 5 -67 12 -81 6 -14 56 -60 110 -102 83 -65 103 -86 129 -137 16 -34 39 -77 49 -96 10 -19 28 -60 40 -90 23 -61 86 -164 138 -225 l34 -40 -7 -103 c-7 -112 2 -87 -124 -342 l-52 -105 -11 -150 c-8 -109 -8 -175 1 -242 6 -50 11 -147 11 -214 0 -113 3 -130 36 -233 20 -61 51 -138 69 -171 18 -33 38 -81 45 -108 15 -55 74 -127 124 -151 22 -10 61 -16 111 -16 71 0 81 -3 124 -33 25 -17 66 -42 91 -55 58 -29 164 -114 262 -209 122 -120 97 -113 363 -113 180 0 241 -3 280 -16 78 -24 214 -30 251 -11 63 33 154 161 154 219 0 51 49 177 97 250 83 127 92 215 36 360 -30 75 -127 208 -245 334 -103 110 -149 254 -96 304 48 45 129 73 225 80 104 7 117 15 162 90 25 43 26 51 26 190 0 135 -2 150 -27 213 -16 37 -28 78 -28 91 0 14 18 46 42 74 l43 50 95 7 c52 3 104 11 116 17 38 18 54 70 54 171 0 102 -1 100 87 245 35 57 56 106 68 160 17 72 72 201 109 253 26 38 21 104 -13 152 -24 35 -30 55 -34 120 -4 58 -12 88 -30 120 -31 52 -52 126 -39 139 13 13 82 -13 282 -108 178 -84 226 -98 270 -74 28 15 30 46 14 160 -9 58 -18 137 -20 175 l-5 70 73 42 c40 23 99 53 130 66 58 26 81 51 92 100 10 41 -32 73 -200 157 -78 39 -149 79 -158 89 -16 17 -16 24 -2 77 23 90 -2 133 -99 164 -22 7 -96 35 -164 62 -267 106 -680 200 -1041 238 -58 6 -136 15 -173 21 -38 5 -202 9 -365 8 -243 -2 -328 -6 -467 -24z m736 -777 c3 -4 39 -7 80 -6 41 1 97 -1 124 -5 28 -3 60 -6 72 -7 12 0 29 -7 38 -16 13 -13 28 -15 70 -10 60 7 155 -9 170 -29 6 -7 40 -14 77 -17 44 -2 73 -10 86 -21 10 -9 33 -17 50 -17 17 0 33 -4 36 -9 3 -5 17 -8 32 -8 14 0 30 -7 35 -14 5 -8 9 -10 9 -5 0 5 6 3 14 -3 13 -11 12 -17 0 -47 -21 -51 -10 -115 27 -150 53 -50 32 -67 -86 -70 -94 -2 -97 -3 -91 -13 3 -5 -1 -14 -9 -21 -8 -7 -15 -9 -15 -4 0 4 -10 -2 -22 -13 -21 -20 -44 -27 -76 -24 -7 0 -34 21 -60 46 -26 25 -55 48 -64 51 -10 3 -18 10 -18 15 0 5 -53 9 -121 9 -110 0 -126 -2 -180 -27 -32 -15 -59 -30 -59 -34 0 -3 -35 -4 -77 -2 -43 2 -120 3 -171 3 -76 0 -94 3 -99 16 -5 13 -7 13 -14 2 -5 -7 -6 17 -3 58 l7 72 -49 28 c-40 23 -60 29 -117 29 -54 1 -71 4 -78 18 -6 9 -18 17 -27 17 -21 1 -52 23 -52 38 0 12 -63 27 -78 19 -4 -3 -42 -9 -83 -13 -41 -3 -79 -11 -86 -16 -8 -6 -54 -7 -125 -2 -155 11 -178 8 -300 -45 l-47 -20 -28 22 c-62 47 -50 71 39 83 17 2 35 9 39 15 4 7 16 8 29 4 21 -7 67 9 81 28 3 5 27 10 53 12 26 2 70 10 99 19 57 16 104 24 184 31 29 3 64 10 78 15 15 6 50 10 78 11 29 0 73 4 100 8 26 4 47 4 47 -1 0 -4 18 -8 40 -8 22 0 40 4 40 10 0 19 388 17 401 -2z m1000 -398 c21 0 7 -28 -16 -32 -21 -5 -25 -1 -25 19 0 19 4 24 16 19 9 -3 20 -6 25 -6z m-318 -694 c111 -19 228 -37 259 -41 32 -3 60 -11 63 -16 8 -13 -4 -12 -140 12 -164 28 -426 69 -446 69 -11 0 -19 -12 -24 -37 -12 -67 -95 -415 -120 -508 -14 -49 -28 -106 -31 -125 -7 -41 -7 -40 129 -91 43 -16 90 -36 105 -44 27 -16 27 -16 2 -10 -81 20 -217 80 -240 105 -14 15 -40 32 -59 37 -19 5 -36 14 -39 21 -3 9 3 10 23 2 37 -14 65 -12 65 4 0 7 13 57 30 110 38 125 100 402 100 449 0 34 -2 37 -30 37 -33 0 -44 -15 -55 -73 -4 -20 -12 -40 -17 -43 -6 -4 -8 1 -4 12 3 11 2 25 -3 33 -6 9 -3 21 10 34 10 12 19 27 19 34 0 9 15 13 49 13 44 0 49 3 55 25 6 22 12 25 51 25 25 0 137 -15 248 -34z m-1805 -13 c-10 -2 -26 -2 -35 0 -10 3 -2 5 17 5 19 0 27 -2 18 -5z m-128 -24 c-41 -10 -113 -25 -160 -34 -47 -8 -96 -17 -110 -21 -22 -5 -23 -4 -6 7 10 6 82 22 159 36 78 13 143 26 146 28 2 3 14 5 25 4 12 -1 -13 -10 -54 -20z m211 -29 c4 0 5 -8 2 -19 -5 -20 -5 -20 52 -211 32 -108 69 -250 89 -342 6 -25 8 -26 36 -16 24 8 30 16 30 39 0 23 4 29 21 29 17 0 19 -3 10 -14 -6 -7 -10 -24 -9 -36 3 -19 -5 -25 -39 -37 -27 -9 -43 -21 -44 -31 0 -9 -15 48 -34 128 -36 158 -88 353 -104 391 -6 13 -14 47 -20 74 -5 28 -12 59 -16 70 -4 16 -3 15 6 -2 7 -13 15 -23 20 -23z m99 -5 c7 -9 10 -19 6 -23 -4 -4 -13 0 -20 9 -6 9 -20 19 -31 22 -16 4 -14 5 6 6 15 0 32 -6 39 -14z m45 -665 c-3 -5 -18 -10 -33 -9 l-27 1 25 8 c35 11 42 11 35 0z m-125 -35 c-36 -12 -87 -33 -115 -45 -27 -11 -45 -16 -39 -10 14 14 183 80 204 79 8 0 -14 -11 -50 -24z" id="svg_2"/>
</g><g id="layer103" fill="#613136" stroke="none" class="">
<path d="M2218 5213 c17 -2 47 -2 65 0 17 2 3 4 -33 4 -36 0 -50 -2 -32 -4z" id="svg_3"/>
<path d="M2493 5213 c59 -2 154 -2 210 0 56 1 8 3 -108 3 -115 0 -161 -2 -102 -3z" id="svg_4"/>
<path d="M2928 5193 c12 -2 30 -2 40 0 9 3 -1 5 -23 4 -22 0 -30 -2 -17 -4z" id="svg_5"/>
<path d="M2199 5136 c-2 -2 -53 -9 -114 -16 -246 -26 -534 -84 -830 -168 -119 -33 -125 -36 -125 -67 0 -26 -14 -40 -30 -30 -7 4 -7 13 0 26 9 16 7 19 -10 19 -13 0 -20 -7 -20 -19 0 -30 -24 -45 -49 -29 -18 11 -33 9 -108 -17 -113 -38 -113 -37 -102 -83 11 -48 178 -525 187 -534 7 -7 17 -4 232 77 233 86 548 157 871 195 413 48 954 14 1334 -83 157 -41 454 -137 557 -181 l37 -16 17 31 c8 17 31 75 50 128 19 53 41 112 49 131 31 79 87 270 82 283 -5 13 -43 30 -263 113 -89 34 -361 107 -559 149 -180 39 -370 66 -575 84 -116 10 -622 16 -631 7z m-335 -187 c14 -17 26 -34 26 -38 0 -5 21 -11 46 -14 25 -2 50 -9 55 -14 17 -17 21 -77 10 -121 -17 -62 -34 -53 -29 16 l3 57 -31 3 c-35 3 -44 -5 -68 -70 -24 -65 -61 -75 -85 -22 -28 62 -8 122 47 138 12 4 22 11 22 16 0 19 -47 40 -89 40 -42 0 -44 1 -26 14 21 14 47 23 77 25 9 0 28 -13 42 -30z m1544 0 c46 -23 82 -69 82 -106 0 -26 -12 -35 -60 -43 -28 -5 -34 -10 -32 -25 2 -11 11 -28 19 -37 17 -19 53 -24 53 -8 0 6 5 10 10 10 12 0 13 -70 2 -88 -21 -33 -112 96 -112 160 0 31 23 48 67 48 l28 1 -32 29 c-72 65 -142 46 -144 -39 -1 -38 -2 -42 -9 -21 -13 42 -11 94 6 118 20 29 64 29 122 1z m-953 -11 c11 0 47 3 79 8 58 7 59 7 86 -26 l28 -34 36 32 c40 35 58 38 95 18 19 -10 31 -11 48 -3 17 7 49 7 112 -1 49 -7 96 -10 104 -6 28 10 57 -43 57 -104 0 -44 -3 -53 -12 -44 -7 7 -12 30 -12 52 2 47 -20 55 -38 15 l-11 -25 -18 30 c-22 35 -49 40 -49 9 0 -20 -1 -20 -31 5 -39 33 -74 33 -95 1 l-16 -25 -20 25 c-33 42 -72 34 -132 -28 -53 -55 -96 -106 -96 -113 0 -2 26 -17 59 -33 38 -20 60 -38 64 -53 4 -12 4 -24 2 -26 -6 -6 -123 59 -141 79 -30 33 -22 73 25 124 23 25 41 51 38 58 -5 17 -73 28 -102 17 -15 -6 -25 -17 -25 -30 0 -25 -7 -25 -28 0 -33 41 -143 47 -204 12 -30 -17 -48 -50 -49 -90 0 -24 -1 -25 -9 -7 -14 32 -11 84 6 116 23 46 65 61 154 54 41 -4 84 -6 95 -7z m-759 -93 c7 -18 -12 -45 -32 -45 -14 0 -20 41 -7 53 11 12 33 7 39 -8z m1955 -42 c17 -16 29 -21 33 -14 12 19 53 12 84 -14 17 -14 43 -25 58 -25 16 0 44 -9 62 -20 18 -11 41 -20 51 -20 10 0 26 -9 36 -20 10 -11 30 -20 45 -20 15 0 33 -7 40 -15 22 -26 38 -100 30 -136 l-7 -34 -12 28 c-6 16 -11 43 -11 62 0 28 -3 32 -20 28 -12 -3 -20 -14 -21 -27 0 -15 -6 -9 -19 20 -22 51 -50 66 -50 26 0 -26 0 -26 -26 11 -22 34 -57 57 -84 57 -5 0 -16 -12 -23 -27 l-15 -27 -7 32 c-7 32 -46 72 -71 72 -21 0 -42 -40 -50 -95 -4 -27 -10 -59 -14 -70 -15 -42 -22 25 -9 91 11 58 11 65 -6 83 -26 30 -53 35 -76 15 -18 -17 -19 -16 -19 14 0 64 47 76 101 25z m-2471 -6 c8 -7 21 -24 27 -39 l12 -27 58 19 c72 24 290 63 303 55 6 -3 10 -28 10 -54 0 -37 -6 -54 -25 -75 -29 -32 -53 -41 -153 -62 -83 -17 -132 -38 -132 -56 0 -24 34 -48 67 -48 32 0 33 -1 33 -40 0 -33 -3 -40 -20 -40 -48 0 -122 118 -105 169 11 35 50 59 115 71 109 21 168 39 174 55 4 11 -2 15 -23 15 -49 0 -171 -27 -272 -59 -89 -29 -129 -37 -129 -27 0 2 -3 11 -6 19 -3 9 7 22 30 37 20 12 36 26 36 31 0 5 -25 9 -56 9 -51 0 -59 -3 -91 -35 -34 -34 -35 -36 -31 -104 2 -38 0 -67 -4 -65 -15 9 -30 90 -24 130 11 82 41 115 122 132 43 9 61 7 84 -11z m1644 -64 c-15 -24 -31 -27 -38 -6 -9 22 22 49 38 33 7 -7 7 -16 0 -27z m-463 -27 c10 9 23 13 28 9 15 -8 14 -17 -3 -40 -12 -17 -16 -17 -31 -5 -14 11 -20 12 -37 1 -30 -19 -47 2 -23 29 17 18 20 19 34 6 13 -14 17 -14 32 0z m249 -91 c27 -13 52 -30 56 -36 8 -14 6 -13 -63 24 -47 24 -63 37 -48 37 3 0 28 -11 55 -25z m1200 -64 c0 -11 -5 -23 -11 -26 -13 -8 -15 -6 -23 23 -6 18 -3 22 13 22 14 0 21 -6 21 -19z m-187 -62 c3 -13 0 -22 -10 -26 -20 -8 -35 17 -21 34 15 19 25 16 31 -8z m50 -40 c-20 -20 -33 -1 -21 27 12 26 12 26 22 5 6 -15 6 -25 -1 -32z" id="svg_6"/>
<path d="M941 4939 c-18 -6 -31 -12 -29 -14 5 -5 78 14 78 20 0 6 -8 5 -49 -6z" id="svg_7"/>
<path d="M4296 4698 c-10 -38 -7 -45 22 -63 l27 -18 -23 25 c-17 19 -21 32 -16 52 3 14 4 26 1 26 -2 0 -7 -10 -11 -22z" id="svg_8"/>
<path d="M661 4480 c-62 -32 -117 -62 -122 -67 -5 -5 37 -34 101 -68 61 -32 122 -71 136 -87 30 -37 30 -65 -1 -198 -26 -110 -30 -150 -17 -150 4 0 29 14 56 30 67 43 151 84 226 111 76 27 114 49 103 60 -4 4 -39 12 -78 18 -106 16 -131 46 -204 247 -34 92 -64 160 -72 161 -8 1 -65 -24 -128 -57z" id="svg_9"/>
<path d="M4222 4503 c-6 -16 -28 -80 -48 -143 -69 -218 -81 -230 -228 -230 -113 0 -115 -22 -6 -54 30 -9 70 -27 90 -40 47 -31 181 -92 221 -101 30 -7 31 -6 26 16 -6 27 -23 145 -32 230 l-6 56 42 37 c24 20 87 57 141 83 54 26 98 51 98 54 0 4 -26 17 -57 30 -32 12 -89 38 -128 56 -84 40 -99 41 -113 6z" id="svg_10"/>
<path d="M4633 4463 c18 -19 27 -41 28 -64 l1 -34 8 28 c11 37 6 49 -33 77 l-32 23 28 -30z" id="svg_11"/>
<path d="M2278 4433 c-33 -8 -18 -23 22 -23 22 0 40 4 40 10 0 5 39 11 88 13 81 3 80 3 -23 4 -60 0 -118 -1 -127 -4z" id="svg_12"/>
<path d="M2658 4433 c45 -2 82 -8 82 -13 0 -11 62 -12 100 -1 30 9 -113 22 -205 19 -49 -2 -46 -3 23 -5z" id="svg_13"/>
<path d="M2115 4420 l-60 -7 55 -1 c30 0 75 3 100 7 l45 8 -40 0 c-22 0 -67 -3 -100 -7z" id="svg_14"/>
<path d="M2915 4410 c44 -11 67 -11 60 0 -3 6 -25 9 -48 9 -40 -1 -40 -2 -12 -9z" id="svg_15"/>
<path d="M1978 4403 c-21 -2 -38 -9 -38 -14 0 -10 58 -3 95 12 l20 8 -20 -1 c-11 -1 -37 -3 -57 -5z" id="svg_16"/>
<path d="M3052 4387 c17 -18 65 -21 108 -7 21 7 19 8 -16 9 -23 1 -57 4 -75 8 -32 6 -33 5 -17 -10z" id="svg_17"/>
<path d="M1720 4356 c-37 -8 -48 -14 -35 -17 11 -3 45 2 75 12 63 20 41 22 -40 5z" id="svg_18"/>
<path d="M3296 4345 c5 -11 21 -15 63 -14 l56 1 -55 13 c-70 18 -70 18 -64 0z" id="svg_19"/>
<path d="M4641 4346 c-6 -8 -25 -19 -42 -26 -16 -7 -28 -15 -25 -17 6 -7 60 23 75 41 8 9 11 16 8 16 -2 0 -10 -6 -16 -14z" id="svg_20"/>
<path d="M406 4339 c6 -10 104 -62 104 -55 0 3 -25 18 -55 34 -30 17 -52 26 -49 21z" id="svg_21"/>
<path d="M1555 4315 c-36 -11 -38 -13 -17 -19 22 -8 82 12 82 26 0 10 -16 9 -65 -7z" id="svg_22"/>
<path d="M3436 4320 c12 -5 25 -13 29 -19 3 -6 21 -11 40 -11 19 0 36 -4 39 -9 3 -5 17 -8 32 -8 14 0 30 -7 35 -14 5 -8 9 -10 9 -5 0 5 7 3 15 -4 8 -7 15 -8 15 -4 0 16 -37 33 -129 59 -90 25 -125 31 -85 15z" id="svg_23"/>
<path d="M1441 4282 c-24 -9 -47 -24 -49 -32 -4 -11 -1 -10 12 3 10 9 25 18 34 18 9 1 22 2 27 4 6 1 18 3 28 3 19 2 24 22 5 21 -7 0 -33 -8 -57 -17z" id="svg_24"/>
<path d="M2070 4260 c-31 -7 -29 -8 21 -9 50 -1 64 -6 110 -41 30 -22 63 -40 74 -39 14 0 16 2 5 6 -8 3 -19 12 -23 19 -4 8 -16 14 -25 14 -20 1 -52 23 -52 37 0 21 -47 26 -110 13z" id="svg_25"/>
<path d="M1980 4252 c-19 -2 -39 -8 -45 -14 -7 -6 6 -7 40 -3 28 4 51 9 53 10 8 7 -16 10 -48 7z" id="svg_26"/>
<path d="M1647 4240 c-20 -4 -39 -9 -41 -11 -2 -2 68 -4 157 -5 121 0 144 1 92 7 -131 13 -170 15 -208 9z" id="svg_27"/>
<path d="M1396 4190 c4 -25 8 -47 10 -49 1 -2 26 7 53 20 28 12 49 24 47 27 -2 2 -13 -1 -24 -7 -16 -8 -26 -6 -48 11 -16 12 -32 27 -37 33 -4 5 -4 -10 -1 -35z" id="svg_28"/>
<path d="M3631 4199 c-13 -39 -15 -82 -2 -59 10 18 24 90 17 90 -2 0 -9 -14 -15 -31z" id="svg_29"/>
<path d="M656 4200 c7 -8 14 -24 17 -35 4 -19 5 -19 6 1 0 12 -7 28 -16 35 -16 12 -17 12 -7 -1z" id="svg_30"/>
<path d="M4368 4193 c-2 -5 -1 -28 3 -53 l6 -45 1 53 c2 48 -2 63 -10 45z" id="svg_31"/>
<path d="M2350 4171 c8 -5 33 -11 55 -14 l40 -5 -30 13 c-33 16 -91 21 -65 6z" id="svg_32"/>
<path d="M1978 4140 c-48 -10 -92 -21 -98 -25 -6 -4 -10 -39 -9 -88 1 -86 -10 -162 -42 -289 -10 -42 -19 -89 -18 -105 0 -42 52 -162 87 -204 45 -53 24 -99 -47 -99 -25 0 -77 101 -85 165 -13 104 -123 281 -236 378 l-65 55 -12 -66 c-14 -82 -60 -217 -101 -298 -44 -86 -109 -132 -235 -165 -38 -10 -71 -20 -74 -23 -11 -11 28 -56 82 -97 l56 -42 72 17 c40 9 104 21 142 27 39 5 89 15 113 21 23 6 45 8 48 6 4 -4 -48 -16 -284 -65 l-72 -14 40 -46 c22 -25 40 -51 40 -57 0 -6 16 -37 35 -69 20 -32 49 -93 65 -135 18 -46 58 -116 100 -174 l70 -97 0 -77 c0 -69 2 -75 18 -69 70 31 190 74 202 74 8 0 -14 -11 -50 -24 -95 -33 -157 -62 -165 -75 -4 -6 -9 -38 -11 -71 -4 -50 -18 -87 -92 -236 l-87 -176 2 -171 c3 -408 8 -473 42 -575 16 -51 44 -117 60 -146 16 -29 37 -77 46 -108 31 -105 76 -137 199 -137 67 0 78 -3 122 -33 27 -19 71 -43 97 -55 54 -24 129 -85 262 -214 50 -47 102 -89 115 -92 14 -2 126 -7 250 -10 124 -4 237 -9 253 -12 26 -6 27 -4 27 30 0 40 -45 128 -84 165 -12 12 -41 25 -62 28 -55 8 -112 39 -159 83 -22 21 -65 48 -96 60 -74 27 -141 73 -180 121 -46 58 -97 165 -111 231 l-12 57 -101 -6 c-88 -5 -112 -3 -176 17 -107 32 -211 114 -243 192 -20 48 -20 138 -1 185 9 20 34 54 57 75 l42 38 -13 63 c-16 78 -26 309 -17 371 6 35 22 66 67 126 38 50 69 104 83 147 35 100 34 99 76 127 42 28 80 95 80 144 0 28 4 32 42 42 23 7 49 8 60 3 17 -7 16 -12 -16 -78 -18 -38 -59 -107 -89 -153 -40 -59 -59 -99 -67 -140 -11 -51 -18 -63 -75 -117 -86 -81 -98 -126 -84 -320 14 -193 4 -180 140 -180 100 0 122 -4 176 -26 l63 -27 11 42 c32 120 138 246 242 284 104 39 182 26 252 -43 58 -58 79 -115 78 -210 -2 -123 -50 -237 -134 -315 l-38 -36 39 -40 c46 -49 105 -163 126 -247 31 -120 -3 -244 -84 -302 -22 -16 -41 -33 -41 -37 -2 -16 83 -68 118 -73 68 -11 85 -20 124 -70 66 -87 107 -163 107 -202 0 -33 1 -35 28 -28 31 7 88 58 106 95 7 14 19 54 25 90 17 88 46 160 88 221 56 82 76 135 70 184 -15 110 -93 235 -249 403 -42 46 -82 102 -105 149 -33 67 -38 86 -41 167 l-4 92 42 38 c23 21 74 53 113 72 62 30 81 34 149 34 118 0 132 21 129 199 -2 103 -6 133 -23 171 -12 26 -22 76 -25 117 -5 63 -8 73 -27 78 -92 27 -214 81 -236 105 -14 15 -40 32 -59 37 -19 5 -36 14 -39 21 -3 9 3 10 23 2 37 -14 65 -12 65 4 0 7 13 57 30 110 38 125 100 402 100 449 0 34 -2 37 -30 37 -33 0 -44 -15 -55 -73 -4 -20 -12 -40 -17 -43 -6 -4 -8 1 -4 12 3 11 2 25 -3 33 -6 9 -3 21 10 34 10 12 19 27 19 34 0 9 15 13 49 13 44 0 49 3 55 25 6 22 12 25 51 25 25 0 137 -15 248 -34 309 -52 331 -54 339 -43 3 6 25 55 49 109 l43 99 -22 67 c-11 37 -24 92 -27 122 -9 77 -19 104 -56 150 -37 46 -81 63 -149 58 -44 -3 -46 -5 -75 -60 -18 -34 -37 -58 -46 -58 -9 0 -60 14 -114 31 -85 27 -103 37 -140 77 l-43 45 -83 4 c-70 4 -90 1 -119 -16 -95 -55 -87 -53 -314 -44 -170 8 -215 7 -233 -4 -12 -7 -25 -13 -27 -13 -9 0 -20 75 -20 145 l-1 70 -97 10 c-83 9 -101 14 -125 36 -32 30 -66 49 -85 48 -7 0 -52 -9 -100 -19z m-360 -827 c-10 -2 -26 -2 -35 0 -10 3 -2 5 17 5 19 0 27 -2 18 -5z m83 -53 c4 0 5 -8 2 -19 -5 -20 -5 -20 52 -211 32 -108 69 -250 89 -342 6 -25 8 -26 36 -16 24 8 30 16 30 39 0 23 4 29 21 29 17 0 19 -3 10 -14 -6 -7 -10 -24 -9 -36 3 -19 -5 -25 -39 -37 -27 -9 -43 -21 -44 -31 0 -9 -15 48 -34 128 -36 158 -88 353 -104 391 -6 13 -14 47 -20 74 -5 28 -12 59 -16 70 -4 16 -3 15 6 -2 7 -13 15 -23 20 -23z m99 -5 c7 -9 10 -19 6 -23 -4 -4 -13 0 -20 9 -6 9 -20 19 -31 22 -16 4 -14 5 6 6 15 0 32 -6 39 -14z m45 -665 c-3 -5 -18 -10 -33 -9 l-27 1 25 8 c35 11 42 11 35 0z m285 -696 c0 -12 -3 -14 -12 -6 -7 6 -26 12 -43 15 -24 3 -22 4 13 6 33 1 42 -3 42 -15z" id="svg_33"/>
<path d="M2467 4129 c12 -14 23 -42 26 -64 l4 -40 1 46 c2 41 -1 49 -25 64 l-28 18 22 -24z" id="svg_34"/>
<path d="M1620 4125 c-30 -9 -72 -27 -92 -40 -21 -14 -42 -25 -48 -25 -5 0 -10 -7 -10 -16 0 -17 35 -53 136 -140 38 -33 72 -74 92 -112 45 -85 56 -91 75 -44 39 97 64 360 36 378 -23 14 -135 13 -189 -1z" id="svg_35"/>
<path d="M3631 4104 c-1 -11 13 -33 29 -49 37 -36 38 -53 3 -61 -48 -10 -49 -12 -5 -13 39 -1 42 1 42 25 0 21 3 24 23 19 12 -3 0 7 -28 22 -31 18 -52 37 -56 53 -6 21 -7 22 -8 4z" id="svg_36"/>
<path d="M4382 4055 c0 -11 4 -33 8 -50 7 -27 8 -27 8 -5 0 14 -4 36 -8 50 -6 20 -8 21 -8 5z" id="svg_37"/>
<path d="M3085 4021 c132 -7 146 -12 217 -77 26 -24 53 -44 60 -44 7 0 0 9 -17 19 -16 11 -43 33 -59 50 -16 17 -37 33 -47 36 -11 4 -19 11 -19 16 0 5 -54 8 -127 7 l-128 -2 120 -5z" id="svg_38"/>
<path d="M2910 4000 c-19 -11 -39 -21 -45 -23 -5 -3 -7 -7 -4 -11 4 -4 28 7 55 23 53 34 49 41 -6 11z" id="svg_39"/>
<path d="M3750 4006 c0 -8 -10 -17 -22 -19 -14 -3 -9 -5 12 -4 44 1 80 -11 80 -26 0 -6 6 -2 14 8 13 18 11 21 -32 37 -56 22 -52 21 -52 4z" id="svg_40"/>
<path d="M3490 3980 c-8 -5 -11 -10 -6 -10 5 0 3 -7 -4 -15 -7 -8 -16 -13 -20 -10 -4 2 -15 -4 -25 -15 -10 -11 -27 -20 -37 -20 -11 0 -16 -4 -13 -10 12 -20 47 -9 73 21 14 18 40 40 57 50 24 15 26 19 10 19 -11 0 -27 -5 -35 -10z" id="svg_41"/>
<path d="M2735 3960 c-4 -6 17 -10 57 -9 44 0 57 3 43 9 -28 12 -93 12 -100 0z" id="svg_42"/>
<path d="M1020 3920 c-19 -11 -30 -19 -25 -19 6 0 26 8 45 19 19 11 31 19 25 19 -5 0 -26 -8 -45 -19z" id="svg_43"/>
<path d="M632 3874 c-2 -48 2 -64 16 -77 10 -10 23 -17 28 -17 4 0 -1 7 -13 15 -18 13 -23 28 -26 78 l-3 62 -2 -61z" id="svg_44"/>
<path d="M4010 3915 c14 -8 30 -14 35 -14 6 0 -1 6 -15 14 -14 8 -29 14 -35 14 -5 0 1 -6 15 -14z" id="svg_45"/>
<path d="M4061 3896 c10 -9 89 -46 89 -41 0 5 -75 45 -86 45 -4 0 -5 -2 -3 -4z" id="svg_46"/>
<path d="M920 3875 c-14 -8 -20 -14 -15 -14 6 0 21 6 35 14 14 8 21 14 15 14 -5 0 -21 -6 -35 -14z" id="svg_47"/>
<path d="M4403 3833 c-6 -21 -10 -40 -8 -42 7 -6 26 51 23 66 -2 8 -8 -3 -15 -24z" id="svg_48"/>
<path d="M4200 3825 c25 -13 50 -24 55 -24 6 0 -10 11 -35 24 -25 13 -49 24 -55 24 -5 0 10 -11 35 -24z" id="svg_49"/>
<path d="M3903 3695 c0 -33 2 -45 4 -27 2 18 2 45 0 60 -2 15 -4 0 -4 -33z" id="svg_50"/>
<path d="M1155 3519 c-22 -10 -34 -19 -27 -19 15 0 72 28 72 35 0 6 3 7 -45 -16z" id="svg_51"/>
<path d="M3135 3313 c-12 -67 -95 -415 -120 -508 -14 -49 -28 -106 -31 -126 -6 -33 -4 -36 32 -52 69 -30 221 -87 231 -87 5 0 26 23 47 50 69 91 86 100 181 100 46 0 90 3 99 6 13 5 16 25 16 121 l0 115 39 56 c87 127 112 175 118 221 l5 47 -133 23 c-202 34 -442 71 -460 71 -11 0 -19 -12 -24 -37z" id="svg_52"/>
<path d="M3765 3020 c-9 -16 -13 -30 -11 -30 3 0 12 14 21 30 9 17 13 30 11 30 -3 0 -12 -13 -21 -30z" id="svg_53"/>
<path d="M3578 2603 c12 -2 30 -2 40 0 9 3 -1 5 -23 4 -22 0 -30 -2 -17 -4z" id="svg_54"/>
<path d="M1462 2560 c0 -19 2 -27 5 -17 2 9 2 25 0 35 -3 9 -5 1 -5 -18z" id="svg_55"/>
<path d="M1453 2450 c0 -25 2 -35 4 -22 2 12 2 32 0 45 -2 12 -4 2 -4 -23z" id="svg_56"/>
<path d="M1273 1975 c0 -22 2 -30 4 -17 2 12 2 30 0 40 -3 9 -5 -1 -4 -23z" id="svg_57"/>
<path d="M2413 1980 c-94 -22 -223 -190 -223 -291 0 -59 -6 -60 -85 -22 -68 32 -82 35 -177 36 -98 2 -106 1 -158 -29 -78 -44 -115 -100 -114 -169 3 -98 61 -164 199 -226 80 -36 224 -33 316 5 15 6 17 -3 20 -71 5 -94 38 -168 113 -250 71 -79 127 -108 203 -108 67 0 98 16 137 69 17 23 22 45 24 131 4 100 3 106 -28 169 -21 42 -56 89 -95 127 l-62 62 61 61 c34 34 74 88 91 121 28 55 30 68 30 165 0 103 -1 106 -34 153 -49 71 -116 92 -218 67z m161 -91 c34 -40 39 -65 34 -157 -3 -53 -12 -91 -27 -120 -32 -62 -100 -127 -152 -144 -67 -22 -64 -46 11 -99 122 -86 190 -221 175 -348 -12 -99 -88 -139 -180 -95 -51 24 -122 106 -157 181 -27 58 -31 77 -32 160 -1 117 -9 124 -85 81 -129 -74 -329 -37 -417 77 -35 46 -39 122 -8 156 42 47 93 64 189 64 101 0 140 -15 244 -94 70 -52 85 -44 76 38 -14 126 64 277 165 323 8 4 43 7 77 7 57 1 63 -1 87 -30z" id="svg_58"/>
<path d="M2435 1894 c-51 -26 -102 -84 -130 -147 -25 -55 -27 -67 -21 -139 6 -74 5 -80 -18 -103 -37 -37 -74 -33 -121 15 -79 81 -226 121 -318 86 -63 -24 -87 -50 -87 -93 0 -31 8 -44 49 -84 98 -94 268 -108 368 -29 34 26 87 26 114 -1 19 -19 20 -28 14 -107 -6 -75 -4 -95 14 -143 28 -74 81 -146 132 -181 103 -69 174 -11 149 123 -23 118 -93 217 -187 262 -57 27 -71 59 -50 109 12 28 23 37 60 47 55 16 127 86 157 154 42 95 24 208 -37 236 -32 15 -52 14 -88 -5z m79 -86 c9 -12 16 -34 16 -47 0 -30 -35 -104 -57 -123 -14 -11 -15 -11 -9 1 5 7 4 16 -2 20 -8 4 -4 17 9 36 12 17 18 22 15 13 -18 -52 -18 -53 3 -30 29 34 37 86 17 117 -45 68 -167 -14 -170 -114 -1 -46 17 -71 53 -71 17 0 22 3 13 9 -11 6 -11 10 0 18 28 22 38 24 32 9 -4 -10 -1 -16 7 -16 9 -1 7 -6 -5 -15 -25 -19 -65 -19 -91 1 -47 35 -4 166 65 201 40 20 87 16 104 -9z m-92 -28 c-35 -21 -61 -70 -63 -117 -2 -24 -2 -25 -6 -5 -7 35 15 89 48 117 17 14 36 25 42 25 7 0 -3 -9 -21 -20z m76 -26 c-3 -27 -4 -26 -9 8 -3 22 -1 34 4 29 5 -5 7 -21 5 -37z m-543 -185 c52 -14 105 -64 105 -100 0 -57 -89 -88 -167 -58 -36 13 -83 58 -83 78 0 10 5 7 13 -8 21 -42 62 -64 126 -69 50 -4 62 -1 80 17 29 29 26 57 -7 91 -58 57 -179 61 -203 7 -8 -20 -9 -20 -6 -2 2 20 58 55 87 55 8 0 33 -5 55 -11z m9 -29 c30 -11 66 -45 66 -62 0 -7 -7 -2 -16 11 -32 45 -127 67 -158 35 -19 -19 -8 -46 29 -70 29 -19 108 -22 130 -4 9 7 15 8 15 2 0 -21 -66 -34 -110 -22 -45 12 -90 49 -90 74 0 37 77 58 134 36z m496 -312 c41 -28 80 -99 80 -145 0 -38 -29 -73 -60 -73 -93 0 -181 159 -121 219 27 27 60 27 101 -1z" id="svg_59"/>
<path d="M2366 1224 c-9 -8 -16 -31 -16 -50 0 -101 119 -196 164 -132 22 30 20 63 -5 116 -34 69 -107 103 -143 66z m92 -29 c36 -31 54 -72 50 -116 -3 -29 -7 -34 -32 -37 -19 -2 -36 4 -53 20 -25 23 -69 106 -60 114 2 2 12 -16 21 -41 20 -50 57 -85 92 -85 21 0 24 5 24 35 0 65 -47 125 -97 125 -13 0 -23 -5 -23 -12 0 -6 -3 -9 -6 -5 -3 3 -3 10 1 16 11 19 52 12 83 -14z" id="svg_60"/>
<path d="M1262 1830 c0 -19 2 -27 5 -17 2 9 2 25 0 35 -3 9 -5 1 -5 -18z" id="svg_61"/>
<path d="M1263 1725 c0 -22 2 -30 4 -17 2 12 2 30 0 40 -3 9 -5 -1 -4 -23z" id="svg_62"/>
<path d="M1283 1500 c0 -47 2 -66 4 -42 2 23 2 61 0 85 -2 23 -4 4 -4 -43z" id="svg_63"/>
<path d="M3070 1498 c41 -45 50 -53 50 -45 0 2 -21 23 -47 47 l-48 45 45 -47z" id="svg_64"/>
<path d="M3283 1231 c12 -22 23 -38 25 -36 5 5 -26 63 -37 69 -5 4 0 -12 12 -33z" id="svg_65"/>
<path d="M1350 1116 c0 -11 30 -66 36 -66 2 0 -3 15 -12 33 -19 36 -24 44 -24 33z" id="svg_66"/>
<path d="M3353 1005 c0 -33 2 -45 4 -27 2 18 2 45 0 60 -2 15 -4 0 -4 -33z" id="svg_67"/>
<path d="M1618 773 c23 -2 59 -2 80 0 20 2 1 4 -43 4 -44 0 -61 -2 -37 -4z" id="svg_68"/>
<path d="M2373 363 c32 -2 81 -2 110 0 29 2 3 3 -58 3 -60 0 -84 -1 -52 -3z" id="svg_69"/>
<path d="M2588 363 c28 -2 76 -2 105 0 28 2 5 3 -53 3 -58 0 -81 -1 -52 -3z" id="svg_70"/>
</g><g id="layer104" fill="#6e5256" stroke="none" class="">
<path d="M2448 5213 c28 -2 76 -2 105 0 28 2 5 3 -53 3 -58 0 -81 -1 -52 -3z" id="svg_71"/>
<path d="M2086 5119 c-294 -36 -521 -81 -796 -158 -152 -43 -158 -46 -162 -78 -2 -17 -9 -28 -18 -28 -10 0 -14 8 -13 23 2 14 -3 22 -12 22 -8 0 -15 -8 -15 -19 0 -29 -24 -45 -48 -30 -15 10 -36 6 -115 -20 -92 -31 -97 -34 -97 -61 0 -27 174 -538 188 -552 4 -4 30 2 57 12 245 92 319 116 450 150 358 93 649 130 1020 130 262 0 323 -4 645 -51 140 -20 405 -83 475 -113 22 -9 80 -28 129 -42 49 -14 127 -40 173 -59 l83 -34 16 30 c29 57 184 510 184 538 0 23 -301 132 -538 196 -186 49 -462 107 -592 124 -339 44 -757 52 -1014 20z m1269 -100 c10 -16 -1 -22 -26 -14 -17 6 -19 9 -8 16 19 12 26 11 34 -2z m-1339 -38 c-8 -13 -36 -15 -36 -3 0 4 5 13 12 20 14 14 34 0 24 -17z m1404 19 c0 -5 -10 -10 -22 -10 -19 0 -20 2 -8 10 19 13 30 13 30 0z m-1460 -21 c0 -12 -29 -24 -37 -16 -3 4 -3 13 0 21 6 16 37 11 37 -5z m-96 -30 c14 -17 26 -35 26 -40 0 -5 20 -9 44 -9 35 0 48 -5 60 -22 19 -26 21 -82 5 -127 -20 -57 -45 -28 -28 33 12 43 6 56 -26 56 -31 0 -48 -18 -69 -73 -19 -49 -37 -62 -66 -47 -23 12 -40 67 -33 104 6 28 46 66 69 66 22 0 16 16 -11 34 -13 9 -43 16 -66 16 -35 0 -40 2 -29 14 11 15 35 22 77 25 13 0 32 -11 47 -30z m1546 1 c65 -33 101 -105 68 -138 -7 -7 -27 -12 -44 -12 -43 0 -47 -10 -24 -48 21 -34 38 -40 58 -20 6 6 15 8 19 5 11 -11 8 -76 -3 -87 -17 -17 -64 27 -90 84 -40 87 -29 126 36 126 l35 1 -33 28 c-43 37 -88 46 -119 26 -18 -12 -23 -25 -24 -63 0 -35 -3 -42 -9 -27 -15 35 -11 107 7 127 21 24 74 23 123 -2z m-950 -11 c8 0 42 3 74 7 58 7 60 6 87 -27 l28 -34 33 33 c36 34 59 39 97 18 18 -10 30 -10 57 -1 26 9 50 8 106 -1 40 -7 81 -11 91 -8 40 12 83 -66 70 -129 -6 -28 -7 -29 -20 -12 -7 11 -13 34 -13 52 0 39 -16 43 -32 7 l-12 -25 -13 25 c-12 24 -18 27 -40 26 -5 -1 -6 -11 -5 -22 4 -20 0 -18 -33 11 -46 40 -83 39 -103 -2 l-14 -29 -19 31 c-15 24 -26 31 -50 31 -26 0 -42 -11 -83 -53 -53 -55 -96 -106 -96 -113 0 -2 26 -17 59 -33 38 -20 60 -38 64 -53 4 -12 5 -24 3 -26 -7 -6 -120 55 -138 74 -35 40 -33 69 10 116 22 24 42 52 43 63 4 18 -2 20 -53 23 -54 3 -58 2 -64 -23 -3 -14 -8 -25 -10 -25 -2 0 -15 12 -29 26 -25 25 -31 26 -107 22 -76 -3 -81 -5 -109 -36 -19 -21 -29 -43 -29 -65 0 -24 -3 -28 -10 -17 -13 19 -13 82 0 114 5 14 24 35 42 47 29 18 43 20 118 14 47 -3 92 -6 100 -6z m-765 -109 c0 -18 -6 -26 -22 -28 -18 -3 -23 1 -23 21 0 28 9 39 30 35 9 -2 15 -14 15 -28z m1947 -19 c29 -25 36 -27 51 -16 23 17 49 9 78 -21 15 -16 34 -24 56 -24 18 0 47 -9 65 -20 18 -11 40 -20 49 -20 9 0 28 -9 42 -20 14 -11 35 -20 46 -20 41 0 83 -107 63 -160 l-10 -25 -11 28 c-6 16 -11 42 -11 58 0 37 -25 39 -37 3 -9 -27 -9 -26 -21 14 -7 23 -22 47 -34 53 -20 11 -21 10 -15 -27 l6 -39 -28 46 c-42 66 -111 90 -111 38 0 -29 -18 -23 -25 10 -7 32 -29 55 -62 65 -29 9 -49 -23 -57 -94 -4 -30 -11 -62 -16 -70 -15 -24 -24 14 -15 68 15 92 13 104 -23 125 -31 19 -34 19 -52 2 -20 -18 -20 -17 -20 16 0 64 39 77 92 30z m-2473 -6 c16 -8 34 -28 39 -44 l11 -30 53 19 c80 28 298 64 310 52 16 -16 13 -88 -6 -116 -22 -35 -57 -51 -148 -70 -92 -18 -148 -40 -148 -57 0 -24 33 -49 65 -49 36 0 45 -13 38 -53 -6 -33 -30 -35 -66 -7 -30 24 -67 96 -67 132 0 39 44 75 106 87 30 6 78 16 108 21 30 6 62 20 71 30 18 19 17 20 -16 20 -49 0 -158 -25 -265 -60 -84 -27 -134 -37 -134 -26 0 2 -3 11 -6 19 -3 9 7 22 30 37 53 32 46 43 -24 38 -49 -4 -66 -9 -88 -31 -25 -25 -27 -34 -27 -108 l0 -81 -17 39 c-23 50 -22 118 1 169 19 41 30 48 121 78 24 7 30 7 59 -9z m1661 -54 c0 -11 -8 -27 -17 -37 -16 -16 -18 -15 -26 4 -7 15 -6 26 3 37 17 21 40 19 40 -4z m-499 -42 c15 -7 24 -7 34 1 8 7 19 9 25 5 28 -18 -7 -64 -36 -47 -12 7 -24 6 -36 -1 -26 -17 -44 3 -29 32 13 24 15 25 42 10z m339 -131 c0 -13 -12 -9 -64 20 -72 39 -69 57 3 20 34 -17 61 -35 61 -40z m1147 -43 c-7 -20 -35 -16 -42 6 -9 29 15 45 33 22 7 -10 11 -22 9 -28z m-193 -37 c3 -13 0 -29 -8 -37 -12 -11 -16 -10 -26 8 -9 17 -9 26 1 37 16 20 26 18 33 -8z m66 -40 c0 -14 -31 -21 -41 -11 -7 7 -6 18 3 32 12 20 14 20 26 4 6 -9 12 -21 12 -25z" id="svg_72"/>
<path d="M4290 4668 c0 -9 12 -24 28 -33 l27 -18 -25 29 c-14 16 -26 31 -27 33 -2 2 -3 -3 -3 -11z" id="svg_73"/>
<path d="M661 4480 c-62 -32 -118 -63 -123 -68 -5 -5 35 -31 101 -66 60 -31 121 -70 135 -87 33 -39 33 -68 1 -203 -26 -111 -30 -146 -17 -146 4 0 29 14 56 30 67 43 151 84 226 111 75 26 114 49 103 59 -4 4 -39 12 -77 18 -107 17 -133 48 -206 248 -33 89 -64 160 -72 161 -7 1 -64 -24 -127 -57z" id="svg_74"/>
<path d="M4222 4503 c-6 -16 -32 -91 -56 -169 -62 -191 -76 -204 -222 -204 -111 0 -113 -22 -4 -54 30 -9 70 -27 90 -40 49 -32 179 -91 218 -99 28 -6 33 -4 29 11 -16 57 -39 270 -32 292 8 24 112 91 203 131 64 28 90 49 63 49 -6 0 -64 25 -130 55 -66 30 -127 55 -134 55 -8 0 -19 -12 -25 -27z" id="svg_75"/>
<path d="M4648 4448 c7 -7 12 -28 13 -47 l1 -36 8 29 c10 31 -2 66 -22 66 -9 0 -9 -3 0 -12z" id="svg_76"/>
<path d="M3052 4387 c18 -18 69 -21 103 -7 16 7 13 9 -16 9 -20 1 -52 4 -70 8 -32 6 -33 5 -17 -10z" id="svg_77"/>
<path d="M2070 4260 c-32 -7 -31 -7 18 -9 29 0 62 -6 73 -11 15 -8 19 -7 19 3 0 25 -43 31 -110 17z" id="svg_78"/>
<path d="M2222 4198 c16 -16 38 -28 51 -27 15 0 17 2 7 6 -8 3 -19 12 -23 19 -4 8 -16 14 -25 14 -10 0 -22 3 -28 8 -5 4 3 -5 18 -20z" id="svg_79"/>
<path d="M3632 4201 c-7 -19 -12 -43 -11 -55 1 -12 7 -2 15 24 17 53 13 80 -4 31z" id="svg_80"/>
<path d="M4373 4155 c0 -27 2 -38 4 -22 2 15 2 37 0 50 -2 12 -4 0 -4 -28z" id="svg_81"/>
<path d="M1986 4140 c-126 -27 -116 -17 -115 -117 1 -86 -18 -208 -47 -307 -20 -70 -18 -95 15 -178 35 -87 83 -150 109 -141 14 5 15 3 5 -8 -28 -29 -14 -55 54 -108 37 -28 76 -51 87 -51 29 0 86 37 86 55 0 16 -96 96 -145 120 -16 8 -24 15 -17 15 7 0 24 12 38 28 20 21 22 22 12 4 -17 -29 -6 -47 62 -94 52 -37 95 -47 134 -32 23 9 20 56 -5 88 l-21 27 33 -20 c41 -25 91 -27 124 -5 33 22 32 31 -13 73 l-38 36 38 -3 c21 -2 36 -7 33 -11 -2 -4 1 -24 7 -45 15 -47 -1 -65 -67 -74 -44 -6 -50 -10 -57 -40 -7 -27 -15 -34 -53 -44 -35 -9 -47 -18 -54 -40 -10 -28 -32 -41 -81 -52 -17 -3 -32 -18 -43 -40 -29 -61 -106 -61 -179 1 -24 20 -57 42 -75 49 -17 8 -33 18 -35 24 -2 5 -19 7 -40 4 -42 -7 -42 -6 -10 -111 15 -51 16 -52 37 -39 21 14 23 13 33 -22 10 -30 9 -39 -4 -52 -13 -13 -16 -13 -24 0 -13 21 -12 3 4 -49 l13 -45 11 34 c7 18 14 31 16 29 4 -3 32 -110 50 -192 4 -15 11 -25 16 -22 14 8 12 -19 -2 -50 -7 -15 -17 -24 -25 -20 -11 4 -13 -1 -7 -18 3 -12 7 -23 8 -24 0 -1 14 1 29 4 24 5 27 9 22 32 -6 27 -4 28 58 39 35 7 85 12 110 12 41 0 51 -5 110 -59 36 -33 75 -62 87 -66 34 -11 82 3 120 35 l35 30 -35 32 c-20 18 -57 47 -82 65 -58 40 -80 73 -82 123 0 28 6 46 23 64 54 57 138 37 234 -53 30 -28 59 -51 65 -51 6 0 78 57 161 128 82 70 168 142 190 160 44 36 50 55 24 84 -9 10 -11 18 -5 18 7 0 23 -18 37 -40 30 -47 37 -50 34 -12 -1 15 6 42 17 59 17 30 24 33 65 33 42 0 48 3 53 25 6 23 11 25 60 25 29 0 113 -11 187 -25 196 -36 379 -59 389 -49 4 5 27 54 50 109 l43 100 -21 60 c-12 33 -25 92 -31 131 -11 83 -26 116 -75 163 -33 32 -40 34 -103 35 l-68 1 -30 -57 c-17 -34 -37 -58 -46 -58 -9 0 -60 13 -114 30 -88 26 -103 34 -140 75 -40 43 -45 45 -101 47 -107 4 -136 -2 -183 -33 l-46 -30 -230 3 c-126 2 -238 -1 -247 -5 -23 -12 -32 23 -32 126 l-1 77 -30 5 c-16 2 -60 7 -96 10 -58 5 -72 11 -114 46 -26 21 -52 39 -59 38 -6 0 -51 -9 -100 -19z m271 -590 c-21 -4 -46 -15 -55 -24 -16 -15 -16 -19 -1 -44 l16 -28 -32 10 -32 10 24 35 c27 40 44 50 88 49 27 0 26 -1 -8 -8z m377 -90 c31 0 45 -7 72 -35 18 -19 43 -39 56 -44 22 -9 21 -10 -7 -10 -18 -1 -57 -19 -98 -47 -38 -25 -71 -43 -74 -40 -3 2 25 26 61 52 70 51 80 73 44 98 -32 23 -77 19 -123 -9 -22 -13 -53 -31 -70 -40 l-30 -16 30 28 c17 15 41 35 55 45 23 15 24 18 11 40 l-14 23 25 -22 c16 -16 37 -23 62 -23z m196 -168 c0 -9 -25 -36 -57 -59 -65 -48 -89 -48 -28 0 22 18 49 42 60 53 25 27 25 27 25 6z m-1071 -150 l-12 -27 -10 43 c-8 35 -7 46 4 53 22 13 35 -36 18 -69z m85 -137 c5 -22 4 -26 -4 -15 -5 8 -10 24 -10 34 0 26 6 18 14 -19z" id="svg_82"/>
<path d="M1665 4130 c-59 -7 -194 -65 -195 -83 0 -20 43 -67 102 -110 58 -43 76 -65 153 -187 l29 -45 17 41 c40 91 67 369 37 378 -30 10 -87 12 -143 6z" id="svg_83"/>
<path d="M3630 4099 c0 -8 14 -28 30 -44 37 -36 38 -53 3 -61 -48 -10 -49 -12 -5 -13 39 -1 42 1 42 25 0 21 3 24 23 19 12 -3 2 5 -23 17 -25 13 -50 34 -57 48 -8 15 -13 19 -13 9z" id="svg_84"/>
<path d="M1328 4022 c19 -21 27 -20 19 3 -4 8 -13 15 -22 15 -13 0 -12 -3 3 -18z" id="svg_85"/>
<path d="M3085 4021 c132 -7 146 -11 217 -77 26 -24 53 -44 60 -44 7 0 0 9 -17 19 -16 11 -43 33 -59 50 -16 17 -37 33 -47 36 -11 4 -19 11 -19 16 0 5 -54 8 -127 7 l-128 -2 120 -5z" id="svg_86"/>
<path d="M3490 3980 c-8 -5 -11 -10 -6 -10 5 0 3 -7 -4 -15 -7 -8 -16 -13 -20 -10 -4 2 -15 -4 -25 -15 -10 -11 -27 -20 -37 -20 -11 0 -16 -4 -13 -10 12 -19 41 -10 71 21 16 17 43 40 59 50 25 16 26 19 10 19 -11 0 -27 -5 -35 -10z" id="svg_87"/>
<path d="M2740 3960 c0 -6 25 -10 58 -9 41 0 51 3 37 9 -28 12 -95 12 -95 0z" id="svg_88"/>
<path d="M1457 3878 c-9 -69 -60 -225 -103 -309 -46 -93 -107 -136 -237 -170 -38 -10 -71 -20 -74 -22 -9 -10 18 -46 59 -80 70 -57 80 -59 145 -43 32 8 78 17 103 21 25 3 103 17 173 31 71 13 132 22 136 19 5 -2 14 -18 21 -35 12 -29 15 -30 55 -24 25 3 51 1 63 -5 18 -10 22 -7 32 24 11 33 9 39 -19 83 -20 31 -36 75 -45 124 -16 86 -37 131 -106 233 -44 64 -71 93 -166 178 l-31 28 -6 -53z" id="svg_89"/>
<path d="M3136 3308 c-9 -53 -96 -417 -132 -551 -23 -84 -25 -100 -13 -112 8 -8 68 -34 134 -60 l120 -45 70 75 70 75 80 0 c132 0 125 -7 125 127 l0 114 49 72 c70 103 111 184 111 221 l0 32 -257 42 c-142 23 -279 44 -304 48 l-46 6 -7 -44z" id="svg_90"/>
<path d="M1620 3313 c-23 -3 -131 -25 -342 -70 l-77 -16 39 -45 c22 -25 40 -50 40 -56 0 -6 16 -38 36 -70 19 -33 46 -87 59 -121 26 -69 55 -119 126 -216 46 -62 48 -68 51 -140 2 -42 7 -73 13 -72 6 1 44 16 85 33 41 16 101 37 133 46 l59 16 -7 46 c-9 62 -78 339 -109 437 -13 44 -30 106 -36 137 -13 68 -35 96 -70 91z" id="svg_91"/>
<path d="M1858 3309 c-48 -28 3 -114 92 -154 33 -15 44 -16 69 -5 64 26 52 77 -31 131 -61 39 -98 47 -130 28z" id="svg_92"/>
<path d="M3018 3233 c-13 -52 -17 -58 -37 -55 -34 5 -113 -54 -343 -260 -41 -38 -80 -68 -86 -68 -6 0 -40 26 -74 59 -70 65 -114 91 -153 91 -39 0 -62 -16 -74 -51 -15 -43 5 -87 59 -130 24 -19 71 -59 104 -90 91 -83 116 -99 150 -99 39 1 58 12 129 75 l56 50 77 0 77 0 23 70 c13 39 39 131 58 205 19 74 44 163 54 198 15 47 17 62 7 62 -7 0 -19 -25 -27 -57z" id="svg_93"/>
<path d="M3046 3214 c-7 -19 1 -34 19 -34 15 0 28 27 19 41 -9 14 -31 10 -38 -7z" id="svg_94"/>
<path d="M3016 3104 c-10 -26 -7 -44 9 -44 17 0 34 29 28 48 -7 17 -30 15 -37 -4z" id="svg_95"/>
<path d="M2978 2963 c-6 -25 1 -43 17 -43 16 0 29 35 20 50 -10 16 -32 12 -37 -7z" id="svg_96"/>
<path d="M1827 2883 c-11 -10 -8 -53 3 -53 6 0 10 14 10 30 0 31 -2 35 -13 23z" id="svg_97"/>
<path d="M2957 2833 c-11 -11 -8 -63 4 -63 6 0 9 9 6 20 -3 13 0 20 9 20 8 0 11 6 8 15 -7 16 -17 19 -27 8z" id="svg_98"/>
<path d="M2703 2688 c-87 -90 -142 -101 -216 -44 l-44 34 -59 -34 c-32 -19 -70 -34 -85 -34 -30 0 -102 44 -143 89 -17 17 -35 31 -40 31 -6 0 -21 -24 -34 -53 -22 -51 -51 -101 -119 -202 -18 -26 -37 -73 -43 -104 -11 -50 -19 -63 -75 -116 -65 -62 -82 -96 -86 -175 -3 -54 13 -282 21 -305 7 -18 17 -20 121 -20 100 0 121 -3 176 -26 l63 -27 11 42 c29 107 121 226 214 274 41 22 64 26 127 27 69 0 80 -3 119 -30 89 -63 131 -179 109 -304 -16 -90 -63 -186 -121 -242 l-47 -46 42 -44 c24 -26 60 -83 86 -139 42 -90 44 -99 45 -185 0 -78 -4 -97 -26 -140 -14 -29 -43 -63 -66 -80 -23 -16 -41 -34 -39 -39 5 -22 86 -67 134 -75 64 -10 79 -23 153 -135 46 -70 59 -98 59 -128 0 -37 1 -38 28 -32 15 3 46 25 68 50 36 37 45 55 59 121 23 105 57 189 109 267 59 86 64 121 32 221 -28 88 -109 205 -239 345 -38 41 -80 99 -97 134 -27 58 -50 156 -50 219 0 40 65 106 147 147 57 28 82 35 156 39 81 6 91 8 113 34 23 27 24 35 24 156 0 112 -3 135 -24 187 -14 33 -28 87 -31 120 l-7 60 -114 43 c-78 30 -121 52 -135 70 -12 14 -37 31 -57 36 -28 8 -38 16 -40 35 -3 24 -7 25 -66 26 l-64 2 -49 -50z m-573 -788 c0 -17 -3 -19 -19 -10 -11 5 -32 11 -48 11 -23 2 -20 3 12 9 22 4 43 8 48 9 4 0 7 -8 7 -19z" id="svg_99"/>
<path d="M1958 2723 c-11 -3 -18 -14 -18 -30 0 -20 -8 -28 -40 -40 -31 -13 -40 -21 -40 -40 0 -13 -6 -25 -12 -27 -7 -2 -35 -8 -61 -15 -59 -14 -197 -66 -220 -83 -12 -9 -18 -31 -21 -73 -3 -52 -15 -84 -92 -240 l-89 -179 1 -171 c3 -371 10 -465 43 -570 16 -52 44 -120 60 -149 17 -29 40 -82 51 -118 31 -101 72 -128 194 -128 62 0 79 -4 111 -25 20 -14 64 -40 98 -57 69 -34 139 -91 272 -220 50 -47 102 -89 115 -92 14 -3 126 -7 250 -10 124 -2 237 -7 253 -11 26 -7 27 -6 27 28 0 37 -52 138 -87 168 -10 9 -42 22 -71 28 -58 12 -112 43 -156 90 -16 17 -52 38 -80 47 -65 21 -148 76 -187 123 -43 52 -97 164 -111 231 l-12 58 -102 -6 c-91 -4 -112 -2 -186 21 -71 22 -94 35 -147 84 -76 68 -100 116 -101 196 0 74 20 121 72 169 l42 39 -13 57 c-18 80 -26 347 -12 398 6 23 36 72 66 110 42 53 61 88 82 152 24 74 31 86 69 112 47 33 84 98 84 148 0 18 -3 31 -7 31 -5 -1 -16 -3 -25 -6z" id="svg_100"/>
<path d="M1452 2460 c0 -19 2 -27 5 -17 2 9 2 25 0 35 -3 9 -5 1 -5 -18z" id="svg_101"/>
<path d="M2413 1980 c-93 -22 -223 -191 -223 -290 0 -60 -6 -61 -85 -23 -68 32 -82 35 -177 36 -98 2 -106 1 -158 -29 -77 -44 -115 -99 -114 -168 2 -96 58 -162 191 -224 85 -39 228 -38 324 2 15 6 17 -3 20 -71 5 -94 38 -168 113 -250 61 -67 117 -100 181 -107 66 -8 111 10 149 57 29 37 31 44 34 141 4 101 3 104 -31 172 -22 43 -58 92 -95 128 l-60 58 57 57 c37 36 71 83 94 130 34 68 37 81 37 160 0 80 -3 91 -32 141 -49 82 -117 106 -225 80z m162 -86 c50 -54 53 -191 5 -284 -41 -80 -96 -126 -182 -154 -36 -11 -20 -44 41 -85 32 -22 73 -58 90 -80 70 -88 105 -214 82 -298 -33 -124 -186 -109 -287 28 -59 81 -78 140 -78 249 -1 91 -2 95 -23 98 -13 2 -35 -5 -50 -16 -49 -34 -100 -45 -192 -40 -96 5 -145 24 -211 84 -98 89 -66 207 66 244 108 30 233 -3 340 -92 34 -28 50 -36 58 -28 6 6 11 49 11 98 1 95 18 148 71 218 49 64 89 84 167 84 60 0 71 -3 92 -26z" id="svg_102"/>
<path d="M2429 1890 c-43 -23 -90 -75 -121 -133 -19 -35 -23 -57 -23 -140 0 -92 -2 -100 -24 -118 -37 -31 -78 -25 -114 17 -67 76 -223 123 -311 94 -59 -19 -96 -56 -96 -96 0 -72 112 -152 226 -162 82 -6 123 3 175 38 50 34 108 40 130 13 10 -11 14 -47 14 -122 0 -93 4 -113 27 -163 65 -140 207 -225 254 -153 25 39 16 155 -18 225 -33 67 -95 132 -153 159 -53 25 -69 51 -60 97 6 36 31 57 78 68 37 9 102 69 134 124 21 35 27 62 31 123 l5 78 -36 36 c-40 40 -65 43 -118 15z m64 -61 c30 -16 37 -28 37 -69 0 -102 -130 -199 -192 -143 -48 43 6 173 87 209 37 17 41 17 68 3z m-490 -276 c39 -23 69 -77 58 -107 -27 -74 -193 -62 -242 18 -25 42 -24 52 12 88 28 29 34 30 85 25 30 -3 69 -14 87 -24z m473 -335 c43 -38 64 -82 64 -134 0 -78 -70 -100 -135 -43 -47 41 -65 78 -65 130 0 83 68 107 136 47z" id="svg_103"/>
<path d="M2401 1794 c-76 -64 -87 -185 -17 -184 19 1 18 2 -6 16 -21 11 -28 22 -28 45 0 54 47 118 98 134 48 14 68 -44 37 -105 -9 -17 -11 -30 -6 -30 5 0 17 21 27 46 16 42 16 49 3 73 -21 38 -67 40 -108 5z" id="svg_104"/>
<path d="M2431 1783 c-33 -17 -71 -76 -71 -112 0 -11 8 -24 17 -30 35 -19 113 64 113 120 0 34 -19 41 -59 22z" id="svg_105"/>
<path d="M2435 1649 c-10 -15 1 -23 20 -15 9 3 13 10 10 16 -8 13 -22 13 -30 -1z" id="svg_106"/>
<path d="M1875 1563 c-75 -19 -72 -94 5 -133 64 -33 152 -21 165 21 19 58 -93 131 -170 112z m113 -33 c41 -25 60 -63 43 -84 -16 -20 -65 -29 -106 -22 -72 14 -122 89 -77 115 29 18 104 13 140 -9z" id="svg_107"/>
<path d="M2365 1216 c-34 -51 5 -149 71 -181 44 -21 64 -17 83 16 12 23 13 34 2 69 -16 53 -67 108 -108 116 -26 5 -34 2 -48 -20z m106 -27 c50 -54 58 -136 13 -153 -41 -16 -123 73 -124 135 0 57 64 68 111 18z" id="svg_108"/>
<path d="M2382 1193 c-22 -44 44 -148 90 -141 19 2 24 10 26 40 3 30 -3 44 -34 77 -39 44 -68 52 -82 24z" id="svg_109"/>
<path d="M2378 363 c28 -2 76 -2 105 0 28 2 5 3 -53 3 -58 0 -81 -1 -52 -3z" id="svg_110"/>
</g><g id="layer105" fill="#a27071" stroke="none" class="">
<path d="M2218 5213 c18 -2 45 -2 60 0 15 2 0 4 -33 4 -33 0 -45 -2 -27 -4z" id="svg_111"/>
<path d="M2468 5213 c23 -2 59 -2 80 0 20 2 1 4 -43 4 -44 0 -61 -2 -37 -4z" id="svg_112"/>
<path d="M2693 5213 c20 -2 54 -2 75 0 20 2 3 4 -38 4 -41 0 -58 -2 -37 -4z" id="svg_113"/>
<path d="M2250 5135 c-8 -2 -69 -9 -135 -15 -168 -17 -498 -74 -635 -109 -185 -49 -334 -92 -342 -99 -3 -4 -8 -18 -10 -32 -2 -15 -11 -26 -22 -28 -16 -3 -18 0 -12 22 5 19 3 26 -9 26 -8 0 -15 -8 -15 -19 0 -29 -24 -45 -48 -30 -15 10 -36 6 -115 -20 -92 -31 -97 -34 -97 -61 0 -27 174 -538 188 -552 4 -4 30 2 57 12 409 154 645 213 1040 260 220 26 628 28 815 5 364 -47 581 -90 740 -150 36 -14 103 -36 150 -49 47 -14 118 -38 158 -55 l72 -30 15 30 c30 57 185 509 185 538 0 23 -315 136 -545 196 -349 91 -607 134 -940 155 -145 9 -458 12 -495 5z m1105 -116 c10 -16 -1 -22 -26 -14 -17 6 -19 9 -8 16 19 12 26 11 34 -2z m-1337 -27 c2 -7 -4 -15 -13 -18 -20 -8 -27 -1 -19 20 7 18 25 17 32 -2z m1402 4 c0 -9 -7 -12 -21 -9 -16 4 -17 8 -7 14 19 13 28 11 28 -5z m-1471 -5 c16 -10 6 -31 -15 -31 -8 0 -14 9 -14 20 0 22 7 25 29 11z m-78 -51 c27 -34 38 -40 70 -40 46 0 69 -27 69 -81 0 -41 -18 -99 -30 -99 -15 0 -20 35 -10 69 11 40 6 51 -23 51 -34 0 -46 -13 -65 -65 -30 -82 -74 -87 -100 -10 -18 55 -2 100 44 117 19 6 34 15 34 19 0 16 -53 39 -91 39 -35 0 -40 2 -29 14 6 8 21 17 33 19 54 11 66 7 98 -33z m1538 10 c49 -24 81 -64 81 -99 0 -36 -17 -51 -56 -51 -43 0 -47 -10 -24 -48 21 -34 38 -40 58 -20 6 6 15 8 19 5 11 -12 8 -76 -5 -89 -27 -27 -112 98 -112 166 0 37 12 46 62 46 27 0 29 2 17 16 -19 23 -67 45 -99 46 -44 1 -60 -18 -61 -71 0 -35 -2 -41 -9 -26 -15 35 -11 107 7 127 21 24 74 23 122 -2z m-949 -11 c8 0 42 3 75 7 58 7 59 6 87 -27 l28 -33 35 34 c35 34 35 34 83 21 31 -8 57 -9 73 -3 15 6 50 5 99 -4 41 -7 83 -11 93 -8 40 12 86 -73 71 -132 -7 -26 -8 -26 -20 -9 -8 11 -14 34 -14 52 0 40 -14 43 -33 6 -14 -26 -15 -26 -21 -5 -4 12 -16 27 -27 32 -17 9 -19 7 -19 -16 l0 -26 -35 31 c-49 43 -88 40 -106 -7 l-10 -26 -19 32 c-16 25 -26 32 -51 32 -26 0 -42 -11 -86 -57 -65 -70 -93 -102 -93 -108 0 -3 27 -18 59 -35 53 -26 83 -61 68 -76 -9 -10 -125 55 -146 82 -29 37 -26 58 13 101 39 44 58 78 49 87 -3 3 -30 6 -59 6 -49 0 -54 -2 -60 -25 -3 -14 -8 -25 -10 -25 -2 0 -15 12 -29 26 -25 25 -31 26 -107 22 -76 -3 -81 -5 -109 -36 -19 -21 -29 -43 -29 -65 -1 -28 -2 -30 -11 -13 -16 27 -5 112 17 137 30 34 54 39 144 34 47 -3 92 -6 100 -6z m-765 -109 c0 -18 -6 -26 -22 -28 -18 -3 -23 1 -23 21 0 28 9 39 30 35 9 -2 15 -14 15 -28z m1948 -20 c30 -26 36 -28 47 -15 16 19 46 11 80 -21 15 -14 37 -23 55 -22 17 0 46 -9 65 -21 19 -11 42 -21 51 -21 9 0 28 -9 43 -21 14 -11 30 -18 36 -14 16 10 58 -40 70 -85 6 -23 8 -56 4 -73 -6 -29 -7 -30 -20 -12 -8 10 -14 36 -14 57 0 45 -21 52 -36 11 l-11 -28 -12 42 c-7 25 -21 48 -33 54 -20 11 -21 10 -15 -25 3 -20 4 -36 2 -36 -3 0 -14 18 -25 40 -21 40 -71 76 -95 66 -8 -3 -15 -17 -17 -33 -4 -27 -5 -27 -22 15 -22 51 -70 82 -92 60 -8 -7 -19 -40 -24 -73 -15 -82 -20 -96 -31 -90 -12 8 -11 61 2 108 13 49 5 74 -33 93 -27 14 -31 14 -49 -2 -18 -17 -19 -16 -19 17 0 65 39 77 93 29z m-2474 -5 c16 -8 33 -27 39 -43 l10 -30 54 18 c65 22 285 63 303 57 20 -8 26 -65 10 -102 -18 -44 -60 -70 -138 -84 -90 -17 -158 -41 -164 -57 -9 -24 27 -54 63 -54 39 0 48 -11 39 -50 -9 -41 -39 -39 -81 5 -38 40 -60 101 -50 138 9 37 46 55 158 78 67 13 110 27 123 40 19 19 19 19 -7 19 -48 0 -184 -30 -273 -60 -79 -27 -135 -37 -135 -26 0 2 -3 11 -6 19 -3 9 7 22 30 37 20 12 36 26 36 31 0 15 -88 10 -120 -6 -46 -24 -63 -67 -57 -144 l5 -66 -19 40 c-24 51 -24 119 0 171 19 41 30 48 121 78 24 7 30 7 59 -9z m1661 -54 c0 -11 -8 -27 -17 -37 -16 -16 -18 -15 -26 4 -7 15 -6 26 3 37 17 21 40 19 40 -4z m-492 -43 c8 -8 15 -8 26 1 17 14 36 7 36 -13 0 -23 -30 -41 -48 -29 -12 7 -22 7 -34 -1 -26 -16 -44 5 -29 33 13 23 31 27 49 9z m337 -129 c19 -19 -19 -8 -76 22 -32 17 -56 35 -53 40 5 8 108 -41 129 -62z m1138 -21 c7 -26 1 -38 -19 -38 -17 0 -28 24 -20 45 8 22 33 18 39 -7z m-189 -60 c3 -13 0 -29 -8 -37 -12 -11 -16 -10 -26 8 -9 17 -9 26 1 37 16 20 26 18 33 -8z m60 -20 c7 -29 -23 -57 -36 -33 -9 15 6 55 21 55 5 0 11 -10 15 -22z" id="svg_114"/>
<path d="M1809 4811 c-20 -16 -21 -21 -10 -35 18 -21 27 -20 51 4 43 43 7 70 -41 31z" id="svg_115"/>
<path d="M4290 4667 c0 -9 10 -22 23 -28 l22 -12 -20 24 c-11 13 -21 26 -22 28 -2 2 -3 -3 -3 -12z" id="svg_116"/>
<path d="M661 4480 c-63 -33 -119 -64 -123 -68 -5 -5 41 -34 101 -66 60 -31 121 -70 135 -87 33 -39 33 -68 1 -203 -26 -111 -30 -146 -17 -146 4 0 29 14 56 30 67 43 151 84 226 111 75 26 114 49 103 59 -4 4 -39 12 -77 18 -56 9 -75 17 -103 44 -46 44 -49 50 -109 218 -30 85 -57 146 -65 147 -8 1 -66 -25 -128 -57z" id="svg_117"/>
<path d="M4222 4503 c-6 -16 -32 -91 -56 -169 -62 -191 -76 -204 -222 -204 -111 0 -113 -22 -4 -54 30 -9 70 -27 90 -40 49 -32 179 -91 218 -99 29 -6 33 -4 28 11 -12 38 -37 267 -32 288 7 28 101 91 203 135 40 17 70 36 66 40 -12 12 -253 119 -268 119 -7 0 -17 -12 -23 -27z" id="svg_118"/>
<path d="M4654 4444 c3 -9 6 -30 7 -47 l1 -32 8 29 c6 18 5 36 -1 48 -12 22 -23 24 -15 2z" id="svg_119"/>
<path d="M2288 4433 c-42 -7 -33 -23 12 -23 22 0 40 4 40 10 0 5 39 11 88 13 l87 3 -100 0 c-55 1 -112 -1 -127 -3z" id="svg_120"/>
<path d="M2658 4433 c45 -2 82 -8 82 -13 0 -12 66 -12 95 -1 22 9 -119 22 -205 19 -39 -1 -31 -3 28 -5z" id="svg_121"/>
<path d="M2125 4420 l-60 -7 50 -1 c28 0 70 3 95 7 40 8 41 8 10 8 -19 0 -62 -3 -95 -7z" id="svg_122"/>
<path d="M2915 4410 c17 -4 39 -8 50 -9 16 -1 17 1 5 9 -8 5 -31 9 -50 9 l-35 -1 30 -8z" id="svg_123"/>
<path d="M1985 4403 c-16 -3 -34 -9 -40 -15 -11 -10 54 -2 90 13 l20 8 -20 -1 c-11 -1 -33 -3 -50 -5z" id="svg_124"/>
<path d="M3052 4387 c18 -18 69 -21 103 -7 15 7 9 9 -25 9 -25 1 -56 4 -70 8 -23 6 -24 6 -8 -10z" id="svg_125"/>
<path d="M1730 4356 c-30 -6 -48 -14 -40 -17 8 -3 40 2 70 12 63 20 50 22 -30 5z" id="svg_126"/>
<path d="M3296 4345 c5 -11 21 -15 63 -14 l56 1 -40 9 c-22 5 -50 11 -62 14 -17 4 -21 2 -17 -10z" id="svg_127"/>
<path d="M1560 4316 c-40 -11 -42 -13 -22 -20 23 -8 82 12 82 26 0 10 -3 9 -60 -6z" id="svg_128"/>
<path d="M3459 4307 c8 -10 28 -17 47 -17 18 0 35 -4 38 -9 3 -5 17 -8 32 -8 14 0 30 -7 35 -14 5 -8 9 -10 9 -5 0 5 7 3 15 -4 8 -7 15 -8 15 -2 0 12 -83 47 -133 56 -21 4 -46 10 -55 13 -15 6 -15 5 -3 -10z" id="svg_129"/>
<path d="M1463 4289 c-40 -12 -43 -19 -5 -15 15 2 33 4 40 5 6 0 12 6 12 11 0 12 -4 11 -47 -1z" id="svg_130"/>
<path d="M2070 4260 c-30 -6 -27 -8 26 -9 33 0 65 -6 72 -13 9 -9 12 -8 12 4 0 26 -41 32 -110 18z" id="svg_131"/>
<path d="M1980 4252 c-19 -2 -39 -8 -45 -14 -7 -7 4 -8 35 -3 66 11 73 23 10 17z" id="svg_132"/>
<path d="M1647 4240 c-20 -4 -39 -9 -41 -11 -2 -2 69 -4 157 -5 121 0 144 1 92 7 -132 13 -170 15 -208 9z" id="svg_133"/>
<path d="M1395 4210 c4 -14 8 -35 9 -47 0 -13 4 -23 7 -23 10 0 89 40 89 46 0 2 -9 0 -19 -5 -15 -8 -25 -6 -47 11 -16 12 -33 27 -37 33 -5 5 -6 -1 -2 -15z" id="svg_134"/>
<path d="M2224 4198 c17 -16 39 -28 51 -27 14 0 16 2 5 6 -8 3 -19 12 -23 19 -4 8 -16 14 -25 14 -10 0 -22 3 -28 8 -5 4 4 -5 20 -20z" id="svg_135"/>
<path d="M3630 4196 c-6 -20 -10 -44 -8 -53 3 -10 9 4 15 32 14 59 10 71 -7 21z" id="svg_136"/>
<path d="M4373 4160 c0 -25 2 -35 4 -22 2 12 2 32 0 45 -2 12 -4 2 -4 -23z" id="svg_137"/>
<path d="M2355 4171 c11 -4 36 -11 55 -14 l35 -6 -30 14 c-16 8 -41 14 -55 14 -22 0 -23 -1 -5 -8z" id="svg_138"/>
<path d="M1986 4140 c-126 -27 -117 -17 -115 -112 1 -85 -19 -224 -46 -312 -8 -27 -15 -62 -15 -77 0 -38 53 -166 86 -207 24 -30 31 -34 63 -29 31 5 33 4 13 -5 -12 -6 -25 -23 -29 -37 -5 -20 -1 -29 22 -46 15 -11 46 -35 67 -52 22 -18 50 -33 61 -33 29 0 87 36 87 54 0 17 -66 73 -125 108 l-41 23 36 29 c19 17 29 24 23 16 -25 -27 -13 -50 48 -95 40 -29 71 -45 91 -45 70 0 88 44 42 100 l-27 31 38 -25 c21 -14 50 -26 66 -26 34 0 76 18 83 35 12 34 -94 115 -150 115 -17 0 -42 -9 -55 -19 -24 -19 -24 -20 -5 -51 18 -32 18 -32 -2 -21 -11 6 -42 11 -69 12 l-48 1 43 10 c23 5 42 14 42 19 0 5 11 21 25 34 30 31 87 33 133 5 18 -11 46 -20 62 -20 21 0 29 -5 29 -17 0 -10 3 -32 7 -49 7 -39 -13 -57 -74 -64 -41 -4 -47 -8 -54 -36 -8 -31 -41 -54 -77 -54 -12 0 -23 -11 -29 -30 -11 -30 -32 -43 -84 -54 -16 -4 -28 -13 -28 -22 0 -29 -47 -64 -85 -64 -42 0 -62 10 -128 62 -27 21 -57 38 -68 38 -10 0 -19 5 -19 10 0 6 -10 10 -22 10 -13 0 -18 -3 -12 -8 11 -7 60 -178 106 -369 12 -51 24 -90 27 -88 2 3 9 -5 16 -18 7 -15 19 -21 36 -20 13 2 61 6 106 9 l81 7 54 -50 c70 -66 97 -83 129 -83 30 0 121 58 116 74 -2 6 -39 38 -83 71 -113 87 -139 152 -83 212 52 54 132 38 223 -47 35 -33 68 -60 73 -60 5 0 77 57 161 128 83 70 169 142 191 160 44 36 50 55 24 84 -9 10 -11 18 -5 18 7 0 23 -18 37 -40 29 -46 39 -51 32 -14 -3 17 3 38 17 60 19 30 26 33 68 34 41 0 47 3 50 23 3 19 10 22 59 25 31 2 119 -8 195 -22 177 -32 374 -59 381 -52 8 7 73 156 83 190 7 20 4 43 -10 85 -11 31 -24 89 -30 129 -12 86 -20 104 -68 154 -28 30 -45 38 -86 43 -72 9 -97 -4 -125 -64 -29 -61 -32 -61 -161 -21 -82 26 -100 36 -136 75 l-41 45 -96 0 c-90 0 -99 -2 -144 -30 l-48 -31 -230 3 c-126 2 -238 -1 -247 -5 -23 -12 -32 24 -33 125 0 86 -1 87 -80 88 -74 0 -114 12 -152 45 -21 18 -47 35 -58 38 -11 3 -60 -3 -109 -13z m645 -680 c42 0 73 -15 88 -44 8 -14 29 -30 47 -36 19 -7 37 -16 40 -22 4 -6 -1 -6 -14 1 -37 20 -67 12 -132 -34 -100 -70 -112 -56 -14 16 67 49 75 66 45 91 -37 29 -81 23 -151 -23 -34 -22 -64 -38 -67 -36 -4 5 37 41 77 69 23 15 24 18 11 39 l-13 22 27 -21 c15 -12 40 -22 56 -22z m199 -163 c0 -16 -16 -34 -50 -60 -82 -61 -90 -54 -20 15 36 35 66 65 68 66 1 1 2 -8 2 -21z m-986 -290 c4 -19 3 -26 -4 -22 -5 3 -10 18 -10 32 0 32 5 28 14 -10z" id="svg_139"/>
<path d="M1548 4093 c-43 -21 -78 -42 -78 -46 0 -20 40 -63 104 -112 57 -42 81 -69 119 -134 26 -44 52 -83 56 -86 27 -16 74 210 69 332 l-3 78 -95 3 c-92 3 -97 2 -172 -35z" id="svg_140"/>
<path d="M3673 4042 c24 -27 21 -41 -10 -48 -48 -10 -49 -12 -5 -13 39 -1 42 1 42 25 0 22 3 24 23 18 33 -10 17 2 -27 20 -38 16 -39 16 -23 -2z" id="svg_141"/>
<path d="M3085 4021 c116 -6 171 -20 190 -51 3 -5 11 -10 18 -10 6 0 -5 11 -24 25 -19 13 -39 29 -46 35 -7 6 -62 9 -135 8 l-123 -2 120 -5z" id="svg_142"/>
<path d="M2910 4000 c-19 -11 -39 -21 -45 -23 -5 -3 -8 -7 -5 -10 3 -3 28 7 55 23 55 33 51 40 -5 10z" id="svg_143"/>
<path d="M3750 4006 c0 -8 -8 -17 -17 -19 -10 -2 -7 -3 6 -2 32 4 81 -14 81 -28 0 -7 5 -4 11 6 13 22 15 19 -38 40 -36 14 -43 15 -43 3z" id="svg_144"/>
<path d="M2481 3998 c-1 -10 8 -22 18 -28 20 -10 229 -15 218 -4 -3 3 -49 6 -101 5 -81 -1 -96 1 -105 16 -8 14 -11 15 -11 3 -1 -10 -4 -9 -10 5 -7 17 -9 17 -9 3z" id="svg_145"/>
<path d="M3490 3980 c-8 -5 -11 -10 -6 -10 5 0 3 -7 -4 -15 -7 -8 -16 -13 -20 -10 -4 2 -15 -4 -25 -15 -10 -11 -28 -20 -39 -21 -20 0 -20 -1 2 -11 20 -10 28 -6 70 34 26 25 54 48 62 51 11 4 9 6 -5 6 -11 0 -27 -4 -35 -9z" id="svg_146"/>
<path d="M2745 3960 c3 -5 30 -10 58 -9 38 0 47 3 32 9 -29 12 -98 12 -90 0z" id="svg_147"/>
<path d="M3328 3923 c13 -13 28 -23 35 -23 7 0 3 6 -8 12 -11 6 -27 16 -35 22 -9 6 -5 1 8 -11z" id="svg_148"/>
<path d="M1457 3878 c-8 -65 -57 -217 -99 -303 -45 -96 -108 -141 -241 -176 -38 -10 -71 -20 -74 -22 -9 -10 18 -46 59 -80 70 -56 81 -60 140 -43 29 8 87 20 128 26 41 6 118 20 172 30 53 11 102 20 110 20 8 0 22 -15 31 -34 15 -32 18 -34 55 -29 22 3 48 0 59 -5 18 -10 21 -7 31 26 10 33 9 40 -18 82 -19 29 -35 74 -44 122 -16 86 -37 131 -106 233 -44 64 -71 93 -166 178 l-31 28 -6 -53z" id="svg_149"/>
<path d="M3903 3700 c0 -30 2 -43 4 -27 2 15 2 39 0 55 -2 15 -4 2 -4 -28z" id="svg_150"/>
<path d="M3933 3505 c0 -22 2 -30 4 -17 2 12 2 30 0 40 -3 9 -5 -1 -4 -23z" id="svg_151"/>
<path d="M3136 3307 c-9 -56 -86 -382 -126 -531 -26 -99 -29 -121 -18 -132 7 -7 67 -33 133 -58 l120 -46 70 75 70 75 80 0 c132 0 125 -7 125 127 l0 114 49 72 c74 110 112 187 109 222 l-3 30 -246 41 c-136 23 -272 44 -302 47 l-55 7 -6 -43z" id="svg_152"/>
<path d="M1857 3305 c-9 -9 -17 -27 -17 -40 0 -36 109 -125 154 -125 8 0 27 10 42 23 39 34 28 65 -39 111 -64 44 -116 56 -140 31z" id="svg_153"/>
<path d="M1475 3285 c-55 -13 -136 -30 -179 -39 -43 -9 -81 -18 -84 -20 -2 -3 12 -24 32 -47 20 -24 36 -47 36 -53 0 -6 16 -38 36 -70 19 -33 46 -87 59 -121 26 -70 55 -119 126 -216 48 -64 49 -69 49 -136 0 -38 3 -72 6 -75 3 -4 34 7 69 23 35 16 96 38 136 49 39 11 74 22 77 25 8 8 -52 270 -95 419 -20 67 -43 153 -53 192 -9 39 -20 76 -24 82 -11 18 -78 13 -191 -13z" id="svg_154"/>
<path d="M3020 3233 c-14 -53 -17 -58 -40 -55 -35 4 -120 -63 -374 -290 -22 -20 -46 -37 -52 -38 -7 0 -42 27 -78 60 -36 32 -79 66 -95 75 -67 34 -131 5 -131 -61 0 -50 11 -66 93 -131 39 -32 96 -79 124 -105 87 -79 121 -77 218 12 l66 59 67 -6 c51 -4 70 -2 79 9 13 15 56 141 68 198 4 19 25 99 46 177 43 157 42 153 31 153 -4 0 -14 -26 -22 -57z" id="svg_155"/>
<path d="M3017 3091 c-3 -11 -2 -22 1 -25 8 -9 32 14 32 30 0 21 -27 17 -33 -5z" id="svg_156"/>
<path d="M2957 2833 c-11 -11 -8 -63 4 -63 6 0 8 9 4 20 -4 11 -2 20 4 20 6 0 11 7 11 15 0 16 -12 20 -23 8z" id="svg_157"/>
<path d="M2720 2699 c-52 -55 -108 -89 -147 -89 -37 0 -82 19 -102 44 -18 22 -35 20 -79 -8 -84 -53 -126 -47 -211 29 -34 30 -64 55 -66 55 -2 0 -24 -39 -49 -87 -25 -49 -64 -112 -86 -141 -22 -30 -45 -72 -51 -95 -6 -23 -16 -57 -21 -75 -6 -20 -32 -52 -68 -84 -78 -68 -85 -99 -76 -300 4 -82 11 -159 15 -171 8 -20 14 -22 122 -22 100 0 121 -3 176 -26 l63 -27 11 42 c29 107 121 226 214 274 41 22 64 26 127 27 69 0 80 -3 119 -30 89 -63 131 -179 109 -304 -16 -90 -63 -186 -120 -241 l-48 -47 41 -42 c49 -52 115 -185 129 -261 22 -117 -14 -231 -89 -285 -23 -16 -42 -33 -42 -37 -2 -18 87 -68 131 -74 64 -9 87 -28 158 -137 47 -71 60 -99 60 -129 0 -37 1 -38 28 -32 15 3 46 25 68 50 36 37 45 55 59 121 22 103 57 189 105 261 62 93 67 151 23 264 -20 52 -134 207 -223 304 -79 85 -116 152 -135 241 -26 121 -22 144 33 195 73 68 150 101 254 107 128 9 132 14 136 181 3 120 2 134 -22 194 -15 36 -29 92 -33 125 -3 34 -9 61 -14 61 -29 0 -224 86 -244 108 -14 15 -42 31 -62 37 -32 9 -38 15 -36 36 3 23 1 24 -59 24 -60 1 -64 -1 -98 -36z m-590 -799 c0 -17 -3 -19 -19 -10 -11 5 -32 11 -48 11 -26 2 -25 2 7 9 56 12 60 11 60 -10z" id="svg_158"/>
<path d="M1963 2722 c-18 -3 -23 -10 -23 -31 0 -24 -6 -30 -39 -40 -31 -9 -40 -17 -43 -37 -3 -24 -11 -28 -73 -44 -72 -19 -211 -72 -227 -88 -4 -4 -10 -35 -12 -68 -3 -51 -15 -84 -92 -239 l-89 -179 1 -171 c3 -362 11 -467 43 -571 17 -52 44 -119 60 -148 17 -29 40 -82 51 -118 31 -102 72 -128 196 -128 67 0 80 -3 117 -29 23 -15 67 -41 97 -56 65 -33 119 -77 255 -207 56 -53 113 -99 126 -102 13 -3 125 -7 249 -10 124 -2 237 -7 253 -11 26 -7 27 -6 27 28 0 37 -52 138 -87 168 -10 9 -42 22 -71 28 -67 14 -85 24 -142 77 -26 25 -67 50 -95 59 -68 23 -138 69 -181 119 -47 55 -101 165 -116 236 l-12 58 -102 -6 c-91 -4 -112 -2 -186 21 -71 22 -94 35 -147 84 -77 69 -101 116 -101 198 0 75 25 131 76 173 l38 32 -13 57 c-18 81 -26 347 -12 399 6 23 35 72 65 109 40 51 61 89 82 152 25 75 33 88 70 114 72 49 115 179 57 171z" id="svg_159"/>
<path d="M3583 2603 c9 -2 25 -2 35 0 9 3 1 5 -18 5 -19 0 -27 -2 -17 -5z" id="svg_160"/>
<path d="M3443 2593 c15 -2 37 -2 50 0 12 2 0 4 -28 4 -27 0 -38 -2 -22 -4z" id="svg_161"/>
<path d="M3394 2160 c0 -69 1 -97 3 -62 2 34 2 90 0 125 -2 34 -3 6 -3 -63z" id="svg_162"/>
<path d="M2413 1980 c-93 -22 -223 -191 -223 -290 0 -60 -6 -61 -85 -23 -68 32 -82 35 -177 36 -98 2 -106 1 -158 -29 -77 -44 -115 -99 -114 -168 2 -96 58 -162 191 -224 85 -39 228 -38 324 2 15 6 17 -3 20 -71 5 -94 38 -168 113 -250 61 -67 117 -100 181 -107 66 -8 111 10 149 57 29 37 31 44 34 141 4 101 3 104 -31 172 -22 43 -58 92 -95 128 l-60 58 57 57 c37 36 71 83 94 130 34 68 37 81 37 160 0 80 -3 91 -32 141 -49 82 -117 106 -225 80z m148 -71 c56 -29 71 -184 27 -281 -43 -92 -98 -143 -190 -172 -36 -11 -20 -44 43 -86 115 -79 190 -222 176 -338 -11 -94 -39 -122 -121 -122 -79 0 -173 85 -227 206 -18 39 -22 69 -23 149 -1 96 -2 100 -23 103 -13 2 -35 -5 -50 -16 -49 -34 -100 -45 -192 -40 -96 5 -145 24 -211 84 -98 89 -66 207 66 244 108 30 233 -3 340 -92 33 -27 50 -36 58 -28 5 5 10 49 11 98 1 66 6 98 22 134 43 95 106 156 172 168 39 7 97 2 122 -11z" id="svg_163"/>
<path d="M2434 1891 c-52 -24 -109 -90 -135 -160 -16 -43 -20 -73 -17 -134 3 -76 2 -80 -24 -99 -41 -32 -73 -26 -116 19 -50 55 -125 91 -204 99 -75 7 -123 -5 -168 -43 -86 -72 34 -208 196 -221 83 -6 122 2 178 40 85 55 154 30 146 -54 -10 -110 -4 -162 25 -223 51 -106 131 -175 204 -175 43 0 61 31 61 107 0 121 -75 245 -181 299 -57 28 -73 54 -64 100 6 36 31 57 80 69 44 10 128 101 148 160 10 27 17 75 17 108 0 54 -3 62 -34 93 -39 39 -55 41 -112 15z m76 -71 c61 -61 -24 -220 -117 -220 -70 0 -94 60 -54 138 44 85 127 126 171 82z m-525 -259 c93 -42 109 -118 35 -156 -68 -35 -200 17 -215 84 -17 77 83 117 180 72z m490 -342 c47 -41 65 -78 65 -130 0 -147 -200 -67 -204 81 -2 81 73 107 139 49z" id="svg_164"/>
<path d="M2401 1794 c-41 -34 -61 -74 -61 -122 0 -43 14 -62 45 -62 17 1 16 3 -7 16 -21 11 -28 22 -28 45 0 54 47 118 98 134 48 14 68 -44 37 -105 -9 -17 -11 -30 -6 -30 5 0 17 20 26 44 15 38 15 48 3 73 -19 40 -64 43 -107 7z" id="svg_165"/>
<path d="M2432 1783 c-19 -9 -39 -31 -52 -57 -25 -52 -25 -72 -3 -85 35 -19 113 64 113 120 0 34 -19 41 -58 22z" id="svg_166"/>
<path d="M2437 1653 c-12 -11 -8 -23 8 -23 8 0 15 7 15 15 0 16 -12 20 -23 8z" id="svg_167"/>
<path d="M1875 1562 c-77 -17 -72 -96 8 -133 59 -26 109 -25 144 5 27 24 27 24 11 58 -22 48 -105 83 -163 70z m113 -32 c41 -25 60 -63 43 -84 -16 -20 -65 -29 -106 -22 -72 14 -122 89 -77 115 29 18 104 13 140 -9z" id="svg_168"/>
<path d="M1868 1533 c-11 -3 -18 -14 -18 -29 0 -34 52 -64 111 -64 57 0 75 17 52 49 -27 39 -91 58 -145 44z" id="svg_169"/>
<path d="M2366 1219 c-21 -31 -20 -64 4 -113 35 -71 102 -104 139 -67 26 26 26 54 2 106 -23 50 -58 83 -98 91 -25 5 -34 2 -47 -17z m119 -48 c35 -55 41 -95 16 -120 -26 -26 -28 -26 -68 -1 -35 21 -73 85 -73 124 0 65 82 63 125 -3z" id="svg_170"/>
<path d="M2382 1193 c-22 -44 46 -148 92 -141 18 3 21 9 20 46 -1 71 -87 143 -112 95z" id="svg_171"/>
<path d="M3317 1915 c-15 -14 -24 -25 -19 -25 5 0 19 11 32 25 30 32 23 32 -13 0z" id="svg_172"/>
<path d="M3173 1883 c20 -2 54 -2 75 0 20 2 3 4 -38 4 -41 0 -58 -2 -37 -4z" id="svg_173"/>
<path d="M2953 1735 c0 -22 2 -30 4 -17 2 12 2 30 0 40 -3 9 -5 -1 -4 -23z" id="svg_174"/>
<path d="M1262 1720 c0 -19 2 -27 5 -17 2 9 2 25 0 35 -3 9 -5 1 -5 -18z" id="svg_175"/>
<path d="M1283 1500 c0 -41 2 -58 4 -37 2 20 2 54 0 75 -2 20 -4 3 -4 -38z" id="svg_176"/>
<path d="M3075 1490 c21 -22 41 -40 44 -40 3 0 -13 18 -34 40 -21 22 -41 40 -44 40 -3 0 13 -18 34 -40z" id="svg_177"/>
<path d="M1658 773 c12 -2 32 -2 45 0 12 2 2 4 -23 4 -25 0 -35 -2 -22 -4z" id="svg_178"/>
<path d="M3074 368 l-29 -33 33 29 c17 17 32 31 32 33 0 8 -8 1 -36 -29z" id="svg_179"/>
<path d="M2393 363 c26 -2 68 -2 95 0 26 2 4 3 -48 3 -52 0 -74 -1 -47 -3z" id="svg_180"/>
<path d="M2588 363 c29 -2 74 -2 100 0 26 2 2 3 -53 3 -55 0 -76 -1 -47 -3z" id="svg_181"/>
<path d="M2913 323 c20 -2 54 -2 75 0 20 2 3 4 -38 4 -41 0 -58 -2 -37 -4z" id="svg_182"/>
</g><g id="layer107" fill="#deadab" stroke="none" class="">
<path d="M2208 5213 c12 -2 30 -2 40 0 9 3 -1 5 -23 4 -22 0 -30 -2 -17 -4z" id="svg_259"/>
<path d="M2270 5024 c-25 -2 -82 -6 -128 -10 -66 -5 -88 -10 -110 -29 -15 -13 -39 -23 -52 -22 -14 0 -32 -2 -40 -4 -9 -2 -16 4 -18 19 -4 23 -28 28 -65 13 -18 -6 -18 -8 -2 -21 9 -7 23 -26 31 -42 13 -24 20 -28 59 -28 36 0 47 -4 56 -22 16 -29 15 -108 0 -137 -20 -36 -36 -19 -36 37 0 60 -4 66 -38 53 -16 -7 -29 -23 -37 -48 -23 -71 -60 -92 -94 -54 -44 48 -26 143 30 157 48 12 -1 54 -65 54 -29 0 -32 2 -21 15 11 13 8 15 -16 15 -72 0 -530 -109 -562 -133 -10 -8 -7 -16 17 -34 17 -14 31 -31 31 -38 0 -23 15 -25 62 -9 25 8 103 26 174 39 145 27 154 25 154 -43 0 -75 -57 -120 -180 -142 -91 -16 -130 -34 -130 -60 0 -25 40 -43 76 -34 22 6 24 3 24 -32 0 -53 -11 -67 -41 -55 -54 21 -99 91 -99 155 0 55 33 76 161 102 103 21 141 36 128 49 -10 10 -186 -27 -290 -61 -58 -19 -110 -34 -116 -34 -5 0 -15 11 -21 24 -10 23 -8 27 24 46 44 28 34 44 -24 37 -32 -3 -53 -13 -76 -36 -30 -31 -31 -34 -28 -114 2 -74 1 -80 -13 -61 -34 50 -38 153 -7 211 7 12 12 23 12 26 0 2 -28 0 -62 -5 -64 -9 -108 -29 -108 -51 0 -20 160 -481 171 -491 6 -6 38 2 86 22 294 119 614 200 963 243 122 15 223 19 476 19 176 0 327 -2 335 -4 8 -3 79 -13 159 -21 234 -26 273 -32 304 -44 16 -6 70 -21 119 -32 50 -11 150 -40 223 -64 72 -25 137 -45 143 -45 6 0 57 -18 112 -40 56 -22 103 -40 106 -40 12 0 86 201 116 318 12 45 12 52 -1 52 -9 0 -13 7 -9 20 3 11 2 20 -3 20 -4 0 -11 20 -15 45 -4 31 -13 50 -28 60 -48 31 -347 128 -532 171 -33 8 -68 17 -78 20 -17 5 -16 3 3 -33 34 -64 25 -86 -42 -98 -45 -8 -46 -15 -13 -52 25 -28 25 -28 40 -8 14 17 17 18 25 5 12 -19 12 -71 0 -90 -23 -36 -95 42 -119 128 -14 50 1 82 39 82 16 0 30 5 30 10 0 16 -62 50 -90 50 -40 0 -50 -13 -57 -69 -5 -44 -8 -50 -16 -35 -6 11 -10 47 -10 81 1 70 5 66 -92 82 -179 31 -744 59 -905 45z m185 -77 c17 1 56 3 88 5 60 3 68 -1 97 -51 6 -12 13 -8 35 17 21 25 34 32 64 32 20 0 42 -5 48 -11 9 -9 19 -9 42 0 22 10 46 10 100 2 38 -6 86 -11 106 -11 29 0 39 -6 55 -32 19 -32 27 -107 13 -121 -13 -13 -33 16 -33 49 0 24 -5 34 -15 34 -9 0 -15 -9 -15 -25 0 -33 -11 -31 -32 5 -21 37 -38 39 -38 3 l0 -27 -33 32 c-47 46 -107 40 -107 -10 0 -27 -13 -22 -32 12 -14 24 -24 30 -51 30 -28 0 -42 -9 -83 -53 -55 -60 -84 -95 -84 -102 0 -3 24 -17 53 -31 58 -30 67 -39 67 -72 0 -22 0 -22 -61 9 -121 60 -138 108 -69 183 22 24 40 48 40 54 0 14 -62 26 -89 17 -12 -3 -24 -17 -27 -31 -8 -30 -10 -30 -37 1 -25 30 -75 40 -140 31 -59 -9 -92 -40 -102 -97 l-7 -44 -15 34 c-20 47 -9 104 28 140 34 35 62 41 144 34 33 -4 74 -6 90 -6z m-751 -100 c16 -25 -26 -66 -48 -47 -20 16 -20 34 0 55 19 18 33 16 48 -8z m1944 -32 c19 -15 33 -21 37 -15 12 19 54 10 83 -19 20 -21 36 -28 50 -24 12 3 39 -4 62 -16 22 -11 47 -21 54 -21 7 0 24 -9 38 -19 13 -11 37 -21 53 -23 24 -2 35 -12 53 -48 23 -47 30 -124 11 -136 -17 -10 -29 16 -29 64 0 31 -4 42 -15 42 -10 0 -15 -10 -15 -31 0 -26 -2 -29 -14 -20 -8 7 -18 25 -21 41 -6 28 -31 58 -40 48 -3 -2 -1 -19 4 -36 13 -44 -1 -40 -28 8 -41 74 -100 92 -112 35 l-6 -30 -17 40 c-24 54 -44 75 -72 75 -18 0 -25 -8 -33 -37 -6 -21 -11 -47 -11 -59 0 -12 -5 -36 -11 -53 -15 -44 -32 -26 -29 31 7 127 7 131 -22 147 -24 14 -28 14 -47 -3 -21 -19 -21 -19 -21 26 0 24 3 48 7 51 15 15 63 5 91 -18z m-813 -55 c8 -12 -21 -60 -35 -60 -18 0 -32 40 -19 56 13 16 45 19 54 4z m-505 -45 c12 -14 15 -14 31 1 15 14 21 14 34 4 19 -16 19 -23 -4 -51 -16 -21 -21 -22 -36 -9 -14 11 -20 12 -38 1 -18 -11 -22 -11 -33 4 -11 15 -10 22 4 41 20 28 26 29 42 9z m280 -95 c61 -31 77 -45 61 -54 -11 -7 -123 55 -129 72 -5 17 2 16 68 -18z m1208 -69 c3 -21 -11 -40 -29 -41 -10 0 -30 51 -23 61 12 19 49 5 52 -20z m-191 -37 c3 -9 13 -14 25 -11 19 5 38 -18 38 -46 0 -19 -29 -30 -44 -18 -7 6 -22 8 -34 4 -16 -4 -24 1 -33 21 -10 22 -9 29 6 46 22 24 34 25 42 4z" id="svg_260"/>
<path d="M1813 4813 c-7 -2 -13 -14 -13 -25 0 -27 38 -21 58 10 14 21 13 22 -9 21 -13 0 -30 -3 -36 -6z" id="svg_261"/>
<path d="M758 4508 c-4 -28 -77 -68 -124 -68 -35 0 -94 -18 -94 -29 0 -4 42 -29 93 -56 123 -65 147 -82 163 -122 13 -30 12 -44 -6 -131 -28 -127 -35 -182 -24 -182 5 0 23 9 39 21 53 36 181 97 248 119 109 35 109 51 -1 65 -93 12 -128 56 -196 246 -24 68 -47 132 -51 142 -10 25 -43 22 -47 -5z" id="svg_262"/>
<path d="M4176 4346 c-61 -187 -79 -209 -175 -219 -34 -4 -81 -4 -102 -1 -63 10 -40 -22 30 -42 31 -9 76 -28 101 -42 117 -67 230 -115 230 -97 0 2 -12 39 -26 81 -24 73 -25 81 -13 143 14 79 47 116 149 170 36 19 67 35 69 37 15 13 -49 51 -184 109 l-30 13 -49 -152z" id="svg_263"/>
<path d="M2373 4433 c9 -2 25 -2 35 0 9 3 1 5 -18 5 -19 0 -27 -2 -17 -5z" id="svg_264"/>
<path d="M2458 4433 c12 -2 30 -2 40 0 9 3 -1 5 -23 4 -22 0 -30 -2 -17 -4z" id="svg_265"/>
<path d="M2598 4433 c12 -2 30 -2 40 0 9 3 -1 5 -23 4 -22 0 -30 -2 -17 -4z" id="svg_266"/>
<path d="M2740 4421 c0 -6 19 -11 42 -11 49 0 47 7 -5 15 -23 4 -37 2 -37 -4z" id="svg_267"/>
<path d="M3054 4385 c8 -8 32 -15 53 -14 42 0 26 11 -35 22 -29 6 -31 5 -18 -8z" id="svg_268"/>
<path d="M3297 4344 c3 -9 19 -14 42 -13 20 0 29 3 21 6 -64 21 -69 22 -63 7z" id="svg_269"/>
<path d="M1694 4341 c3 -5 15 -7 26 -4 28 7 25 13 -6 13 -14 0 -23 -4 -20 -9z" id="svg_270"/>
<path d="M1563 4313 c-25 -5 -32 -23 -9 -23 7 0 27 7 42 15 30 15 19 18 -33 8z" id="svg_271"/>
<path d="M1481 4289 c-13 -5 -22 -11 -20 -14 8 -7 49 7 49 16 0 5 -1 9 -2 8 -2 0 -14 -5 -27 -10z" id="svg_272"/>
<path d="M1610 4230 c-11 -7 -5 -8 20 -4 43 8 51 14 19 14 -13 0 -31 -5 -39 -10z" id="svg_273"/>
<path d="M1768 4233 c12 -2 30 -2 40 0 9 3 -1 5 -23 4 -22 0 -30 -2 -17 -4z" id="svg_274"/>
<path d="M1395 4215 c4 -11 10 -32 14 -48 6 -26 7 -27 29 -11 l23 16 -28 21 c-15 12 -32 26 -36 32 -5 5 -6 1 -2 -10z" id="svg_275"/>
<path d="M2239 4190 c13 -11 31 -20 40 -19 13 0 14 2 1 6 -8 3 -19 12 -23 19 -4 8 -16 14 -25 14 -14 -1 -13 -4 7 -20z" id="svg_276"/>
<path d="M1920 4051 l-35 -6 -7 -70 c-3 -38 -16 -115 -28 -170 -37 -162 -37 -190 0 -277 18 -42 44 -88 59 -102 27 -26 28 -26 76 -12 28 9 57 26 70 42 15 19 33 27 68 31 27 3 47 11 47 18 0 18 42 53 73 60 20 5 42 0 82 -20 30 -16 63 -25 74 -22 18 4 21 -2 27 -51 8 -65 -1 -76 -71 -87 -37 -5 -46 -11 -51 -31 -8 -31 -40 -54 -75 -54 -22 0 -29 -6 -34 -30 -7 -34 -23 -45 -78 -55 -21 -4 -37 -13 -37 -21 0 -7 -10 -25 -23 -40 -18 -21 -32 -26 -64 -26 -49 1 -65 8 -122 57 -47 38 -88 48 -76 18 4 -10 30 -116 58 -236 l52 -217 105 6 106 7 68 -57 c85 -72 113 -83 159 -61 45 21 69 48 62 68 -4 8 -32 33 -63 55 -95 67 -117 95 -117 152 0 63 25 90 87 97 56 7 93 -12 171 -83 49 -46 61 -52 78 -44 10 6 74 58 141 117 68 58 144 122 171 141 42 30 67 59 67 77 0 3 -12 18 -27 32 l-28 26 25 -8 c14 -4 30 -14 35 -22 6 -9 18 -25 28 -37 l19 -21 -5 23 c-3 14 3 38 15 58 18 30 25 34 63 34 39 0 44 3 54 30 9 26 15 30 48 30 21 0 112 -13 203 -29 91 -16 188 -33 215 -36 28 -3 62 -8 76 -11 24 -5 28 1 57 70 21 50 32 92 32 123 -1 60 -52 269 -71 289 -8 7 -35 17 -61 20 -41 6 -54 2 -114 -31 -100 -56 -143 -54 -282 16 -98 49 -113 54 -177 54 -54 0 -86 -6 -142 -29 -71 -28 -72 -29 -240 -24 -92 3 -180 10 -194 16 -52 21 -117 78 -148 129 -17 28 -41 55 -54 59 -12 3 -61 22 -109 40 -89 35 -149 41 -238 25z m664 -570 c4 -5 29 -12 56 -16 40 -6 55 -13 73 -37 12 -16 41 -38 64 -48 42 -18 64 -49 62 -88 0 -17 -100 -97 -135 -108 -11 -3 11 23 49 58 37 35 67 71 67 80 0 21 -37 48 -66 48 -12 0 -54 -22 -95 -50 -41 -27 -77 -50 -81 -50 -18 0 18 39 64 70 60 41 70 53 62 73 -8 21 -68 40 -96 31 -13 -4 -41 -19 -63 -34 -77 -52 -91 -52 -34 2 55 52 56 54 41 77 -16 23 -16 24 5 13 12 -7 24 -16 27 -21z" id="svg_277"/>
<path d="M3674 4041 c23 -26 20 -40 -11 -47 -48 -10 -49 -12 -7 -13 38 -1 42 1 46 27 3 22 -1 31 -20 40 -23 11 -24 10 -8 -7z" id="svg_278"/>
<path d="M3078 4023 c12 -2 32 -2 45 0 12 2 2 4 -23 4 -25 0 -35 -2 -22 -4z" id="svg_279"/>
<path d="M3170 4026 c0 -2 11 -6 25 -8 14 -3 25 -1 25 3 0 5 -11 9 -25 9 -14 0 -25 -2 -25 -4z" id="svg_280"/>
<path d="M3750 4000 c0 -5 16 -12 35 -16 19 -3 35 -10 35 -16 0 -5 5 -6 11 -2 8 4 -1 14 -22 25 -38 20 -59 24 -59 9z" id="svg_281"/>
<path d="M2500 3992 c0 -8 -5 -10 -12 -6 -10 5 -10 4 -1 -6 16 -17 35 -9 23 10 -7 11 -10 11 -10 2z" id="svg_282"/>
<path d="M2741 3966 c2 -2 27 -6 54 -10 34 -3 45 -2 35 4 -14 9 -98 15 -89 6z" id="svg_283"/>
<path d="M1460 3880 c0 -49 -58 -230 -103 -320 -42 -84 -119 -139 -231 -166 -42 -10 -76 -21 -76 -25 0 -15 61 -78 97 -100 l35 -22 121 23 c67 12 165 31 219 41 132 26 143 25 158 -11 11 -27 17 -30 60 -30 27 0 55 -3 64 -6 11 -4 16 3 21 29 5 27 1 43 -19 73 -14 22 -30 62 -37 89 -6 28 -16 69 -21 92 -22 92 -136 255 -227 326 l-61 48 0 -41z" id="svg_284"/>
<path d="M2232 3543 c-12 -2 -27 -13 -32 -23 -8 -15 -4 -26 19 -53 42 -47 102 -73 142 -61 52 15 59 38 24 75 -17 17 -48 40 -70 50 -41 19 -44 19 -83 12z" id="svg_285"/>
<path d="M1990 3403 c-25 -9 -50 -35 -50 -52 0 -9 29 -37 64 -63 49 -36 73 -48 100 -48 39 0 79 30 70 53 -6 17 -122 103 -149 110 -11 3 -27 3 -35 0z" id="svg_286"/>
<path d="M3145 3342 c-3 -3 -5 -14 -5 -25 0 -27 -75 -347 -116 -494 -19 -67 -34 -135 -34 -151 0 -32 -1 -31 165 -97 l90 -35 28 33 c108 123 129 135 225 124 25 -3 56 -1 69 4 22 8 23 13 23 121 l0 113 43 65 c101 152 137 243 100 254 -62 18 -580 95 -588 88z" id="svg_287"/>
<path d="M1515 3290 c-44 -10 -118 -26 -165 -35 -47 -8 -97 -18 -113 -23 l-27 -7 28 -35 c30 -36 110 -186 160 -300 16 -36 58 -103 93 -150 62 -84 63 -86 67 -157 2 -40 5 -73 7 -73 2 0 34 13 72 29 38 17 99 37 136 47 37 9 67 20 67 24 0 19 -64 286 -92 385 -17 61 -43 155 -57 210 l-26 100 -35 2 c-19 1 -71 -7 -115 -17z" id="svg_288"/>
<path d="M1852 3298 c-29 -29 -3 -75 66 -119 59 -37 105 -39 128 -4 15 23 15 27 0 51 -41 61 -160 106 -194 72z" id="svg_289"/>
<path d="M2924 3154 c-47 -32 -116 -89 -251 -211 -57 -51 -111 -93 -120 -93 -9 0 -42 24 -73 54 -59 56 -125 96 -160 96 -32 0 -70 -44 -70 -80 0 -43 22 -72 99 -129 36 -27 86 -70 110 -95 48 -49 97 -72 133 -60 13 3 52 32 87 63 l65 56 73 0 c40 1 77 5 83 11 13 13 102 393 95 405 -10 15 -30 10 -71 -17z" id="svg_290"/>
<path d="M2715 2689 c-94 -96 -152 -108 -233 -49 l-40 29 -69 -35 c-69 -36 -70 -36 -108 -19 -22 8 -65 38 -95 65 l-56 48 -30 -61 c-15 -34 -53 -98 -83 -142 -33 -49 -61 -104 -72 -141 -23 -83 -30 -95 -89 -144 -70 -59 -83 -105 -75 -270 3 -69 11 -145 16 -170 l10 -45 103 3 c99 3 143 -5 227 -42 13 -6 19 3 29 39 16 58 70 148 118 199 41 43 133 91 194 101 102 18 221 -67 254 -181 31 -108 9 -228 -63 -342 -26 -41 -29 -51 -14 -42 11 5 36 10 55 10 29 0 38 -5 51 -30 35 -68 8 -130 -62 -145 -33 -7 -42 -18 -24 -30 5 -3 24 -42 41 -87 29 -74 31 -91 28 -168 -4 -104 -32 -169 -89 -209 -21 -14 -38 -29 -39 -33 -1 -18 76 -62 122 -69 70 -11 87 -25 156 -130 49 -73 62 -100 62 -131 0 -33 3 -38 23 -38 12 0 29 5 37 10 12 8 11 10 -7 10 -32 0 -37 16 -14 47 11 16 32 69 46 118 14 50 49 137 78 195 50 101 52 108 52 185 0 113 -7 123 -261 434 -48 59 -105 186 -111 246 -8 87 8 133 66 190 59 58 79 71 93 57 6 -6 30 1 69 20 43 22 79 31 134 35 41 3 75 10 75 14 0 5 -12 9 -26 9 -24 0 -24 1 -10 22 24 34 21 195 -5 321 -18 86 -20 109 -10 146 7 24 8 47 4 51 -4 4 -48 22 -96 40 -57 22 -94 42 -104 57 -10 14 -33 28 -60 35 -39 9 -44 14 -40 34 4 22 1 24 -39 24 -23 0 -48 2 -56 5 -8 3 -35 -17 -63 -46z m-578 -777 c26 -30 28 -46 13 -89 -15 -42 -50 -59 -98 -47 -31 8 -39 15 -49 47 -33 99 70 167 134 89z" id="svg_291"/>
<path d="M2048 1889 c-35 -20 -15 -69 28 -69 30 0 59 40 41 56 -19 18 -50 24 -69 13z" id="svg_292"/>
<path d="M1940 2690 c0 -25 -5 -31 -40 -41 -34 -10 -40 -16 -40 -40 0 -24 -5 -28 -42 -34 -55 -9 -193 -59 -235 -85 -31 -18 -33 -23 -33 -75 0 -49 -10 -75 -87 -232 l-87 -176 -9 -121 c-7 -90 -5 -144 5 -211 7 -49 12 -140 10 -200 -3 -101 0 -119 29 -210 17 -55 46 -127 64 -160 19 -33 41 -85 49 -116 10 -35 28 -67 47 -85 28 -27 37 -29 128 -34 86 -5 102 -9 133 -32 19 -15 62 -40 96 -56 66 -32 128 -81 266 -213 50 -47 99 -91 110 -96 12 -6 96 -9 220 -6 154 3 213 1 253 -10 29 -8 55 -12 58 -9 12 12 3 46 -24 101 -35 67 -81 111 -119 111 -42 1 -107 35 -159 83 -30 27 -68 51 -101 61 -133 44 -254 191 -286 350 l-13 61 -44 -5 c-278 -32 -517 124 -496 324 7 66 25 103 72 147 35 33 36 36 30 84 -15 121 -22 352 -13 398 7 32 26 69 58 111 57 74 70 100 100 189 17 52 28 71 50 82 39 20 77 69 90 113 15 54 13 62 -15 62 -21 0 -25 -5 -25 -30z m145 -1543 c24 -34 19 -94 -10 -122 -69 -70 -176 32 -119 113 30 44 102 48 129 9z" id="svg_293"/>
<path d="M1992 1118 c-7 -7 -12 -22 -12 -35 0 -44 80 -42 89 2 6 34 -51 59 -77 33z" id="svg_294"/>
<path d="M3393 2240 c0 -25 2 -35 4 -22 2 12 2 32 0 45 -2 12 -4 2 -4 -23z" id="svg_295"/>
<path d="M3393 2085 c0 -27 2 -38 4 -22 2 15 2 37 0 50 -2 12 -4 0 -4 -28z" id="svg_296"/>
<path d="M2364 1952 c-54 -40 -119 -112 -144 -161 -11 -23 -24 -71 -27 -106 l-6 -64 -71 37 c-66 34 -78 37 -178 40 -95 4 -112 2 -152 -18 -25 -12 -64 -42 -86 -67 -36 -41 -40 -51 -40 -100 0 -99 48 -158 175 -220 65 -31 76 -33 170 -33 76 0 110 5 141 19 l41 19 5 -83 c6 -94 37 -163 109 -248 61 -71 129 -107 204 -107 116 0 165 63 165 211 0 111 -32 182 -127 280 -36 38 -64 70 -62 72 2 2 21 16 41 31 45 34 115 139 134 202 17 56 18 144 3 197 -5 21 -29 58 -53 82 l-43 45 -80 0 c-72 0 -84 -3 -119 -28z m186 -35 c14 -6 35 -32 48 -57 20 -38 23 -56 19 -115 -2 -41 -12 -89 -25 -117 -28 -65 -104 -143 -158 -164 -59 -23 -59 -49 0 -87 110 -69 178 -183 184 -307 4 -98 -15 -139 -75 -158 -88 -28 -188 37 -259 170 -38 71 -39 76 -39 175 0 81 -3 104 -15 108 -8 3 -43 -9 -79 -27 -59 -30 -73 -33 -152 -32 -73 0 -94 4 -144 29 -110 54 -157 123 -141 211 6 28 17 41 53 64 119 76 271 55 402 -54 40 -34 70 -46 72 -28 0 4 1 48 2 97 2 76 6 99 30 147 30 61 112 144 150 151 46 9 103 6 127 -6z" id="svg_297"/>
<path d="M2407 1871 c-80 -51 -141 -193 -119 -274 14 -51 4 -86 -32 -108 -46 -28 -68 -24 -111 22 -22 23 -67 54 -100 70 -114 55 -273 31 -299 -44 -20 -54 53 -137 144 -165 100 -31 182 -22 261 29 56 35 88 37 122 5 26 -24 27 -27 20 -115 -7 -102 5 -146 63 -238 57 -90 158 -138 198 -94 29 32 32 108 7 182 -29 87 -80 153 -143 187 -72 38 -88 56 -88 98 0 50 14 71 57 84 63 20 99 47 137 103 63 91 72 206 21 261 -33 35 -78 34 -138 -3z m109 -52 c24 -27 23 -83 -4 -136 -38 -74 -116 -111 -166 -78 -22 14 -26 25 -26 63 0 116 134 219 196 151z m-533 -253 c18 -7 45 -28 60 -45 40 -48 35 -91 -14 -116 -115 -60 -298 79 -203 154 32 25 107 28 157 7z m479 -331 c90 -61 116 -197 42 -225 -101 -39 -226 149 -149 225 31 32 61 32 107 0z" id="svg_298"/>
<path d="M2398 1788 c-13 -13 -17 -18 -8 -12 8 6 24 16 35 22 11 6 15 12 8 12 -7 0 -22 -10 -35 -22z" id="svg_299"/>
<path d="M2404 1756 c-28 -28 -34 -42 -34 -75 0 -49 17 -53 66 -16 33 25 60 84 50 110 -9 25 -46 17 -82 -19z" id="svg_300"/>
<path d="M2342 1683 c-2 -37 6 -63 20 -63 7 0 7 4 0 13 -6 6 -12 28 -15 47 l-4 35 -1 -32z" id="svg_301"/>
<path d="M1832 1538 c-7 -7 -11 -21 -11 -32 1 -21 1 -21 6 -1 3 11 10 26 15 33 13 15 6 16 -10 0z" id="svg_302"/>
<path d="M1855 1520 c-31 -50 117 -111 156 -64 11 14 9 20 -19 45 -26 24 -41 29 -82 29 -27 0 -52 -5 -55 -10z" id="svg_303"/>
<path d="M2387 1203 c-26 -25 15 -114 65 -143 37 -20 53 -4 43 46 -10 58 -83 123 -108 97z" id="svg_304"/>
<path d="M2580 1446 l-24 -27 30 -29 30 -30 -4 42 c-5 71 -5 72 -32 44z" id="svg_305"/>
<path d="M2650 1442 c-20 -16 -21 -21 -11 -41 15 -27 68 -26 85 2 9 15 7 22 -13 38 -29 23 -33 24 -61 1z" id="svg_306"/>
<path d="M2918 323 c12 -2 32 -2 45 0 12 2 2 4 -23 4 -25 0 -35 -2 -22 -4z" id="svg_307"/>
</g><g id="layer108" fill="#bfbdbd" stroke="none" class="">
<path d="M2270 5024 c-25 -2 -82 -6 -128 -10 -66 -5 -88 -10 -110 -29 -15 -13 -39 -23 -52 -22 -14 0 -32 -2 -40 -4 -9 -2 -16 4 -18 19 -4 23 -28 28 -65 13 -18 -6 -18 -8 -2 -21 9 -7 23 -26 31 -42 13 -24 20 -28 59 -28 36 0 47 -4 56 -22 16 -29 15 -108 0 -137 -20 -36 -36 -19 -36 37 0 60 -4 66 -38 53 -16 -7 -29 -23 -37 -48 -23 -71 -60 -92 -94 -54 -44 48 -26 143 30 157 48 12 -1 54 -65 54 -29 0 -32 2 -21 15 11 13 8 15 -16 15 -72 0 -530 -109 -562 -133 -10 -8 -7 -16 17 -34 17 -14 31 -31 31 -38 0 -23 15 -25 62 -9 25 8 103 26 174 39 145 27 154 25 154 -43 0 -75 -57 -120 -180 -142 -91 -16 -130 -34 -130 -60 0 -25 40 -43 76 -34 22 6 24 3 24 -32 0 -53 -11 -67 -41 -55 -54 21 -99 91 -99 155 0 55 33 76 161 102 103 21 141 36 128 49 -10 10 -186 -27 -290 -61 -58 -19 -110 -34 -116 -34 -5 0 -15 11 -21 24 -10 23 -8 27 24 46 44 28 34 44 -24 37 -32 -3 -53 -13 -76 -36 -30 -31 -31 -34 -28 -114 2 -74 1 -80 -13 -61 -34 50 -38 153 -7 211 7 12 12 23 12 26 0 2 -28 0 -62 -5 -64 -9 -108 -29 -108 -51 0 -19 160 -481 171 -491 5 -6 44 4 101 27 51 20 119 46 150 57 35 13 55 26 52 33 -7 20 44 43 155 71 57 15 108 29 112 32 17 10 350 61 504 76 61 6 203 12 317 14 277 3 304 10 208 59 -54 27 -69 47 -52 68 7 8 6 18 -4 31 -25 35 -17 73 26 120 22 24 40 48 40 54 0 14 -62 26 -89 17 -12 -3 -24 -17 -27 -31 -8 -30 -10 -30 -37 1 -25 30 -75 40 -140 31 -59 -9 -92 -40 -102 -97 l-7 -44 -15 34 c-20 47 -9 104 28 140 35 36 104 48 182 31 39 -8 67 -8 102 0 56 13 101 5 115 -18 26 -47 27 -47 55 -14 21 25 34 32 64 32 20 0 42 -5 48 -11 9 -9 19 -9 42 0 22 10 46 10 100 2 38 -6 86 -11 106 -11 29 0 39 -6 55 -32 19 -32 27 -107 13 -121 -13 -13 -33 16 -33 49 0 24 -5 34 -15 34 -9 0 -15 -9 -15 -25 0 -33 -11 -31 -32 5 -21 37 -38 39 -38 3 l0 -27 -33 32 c-47 46 -107 40 -107 -10 0 -27 -13 -22 -32 12 -14 24 -24 30 -51 30 -28 0 -42 -9 -83 -53 -55 -60 -84 -95 -84 -102 0 -3 24 -17 53 -31 57 -29 67 -39 67 -70 0 -17 -5 -20 -25 -16 l-25 4 26 -41 c31 -47 34 -48 204 -55 151 -6 304 -30 415 -66 50 -16 124 -36 165 -45 41 -9 134 -36 206 -61 73 -24 137 -44 143 -44 6 0 57 -18 112 -40 56 -22 103 -40 106 -40 12 0 86 201 116 318 12 45 12 52 -1 52 -9 0 -13 7 -9 20 3 11 2 20 -3 20 -4 0 -11 20 -15 45 -4 31 -13 50 -28 60 -48 31 -347 128 -532 171 -33 8 -68 17 -78 20 -17 5 -16 3 3 -33 34 -64 25 -86 -42 -98 -45 -8 -46 -15 -13 -52 25 -28 25 -28 40 -8 14 17 17 18 25 5 12 -19 12 -71 0 -90 -23 -36 -95 42 -119 128 -14 50 1 82 39 82 16 0 30 5 30 10 0 16 -62 50 -90 50 -40 0 -50 -13 -57 -69 -5 -44 -8 -50 -16 -35 -6 11 -10 47 -10 81 1 70 5 66 -92 82 -179 31 -744 59 -905 45z m-566 -177 c16 -25 -26 -66 -48 -47 -20 16 -20 34 0 55 19 18 33 16 48 -8z m1944 -32 c19 -15 33 -21 37 -15 12 19 54 10 83 -19 20 -21 36 -28 50 -24 12 3 39 -4 62 -16 22 -11 47 -21 54 -21 7 0 24 -9 38 -19 13 -11 37 -21 53 -23 24 -2 35 -12 53 -48 23 -47 30 -124 11 -136 -17 -10 -29 16 -29 64 0 31 -4 42 -15 42 -10 0 -15 -10 -15 -31 0 -34 -16 -31 -30 7 -6 15 -15 22 -25 18 -8 -3 -12 -10 -9 -15 3 -5 1 -9 -4 -9 -4 0 -19 18 -31 40 -41 74 -100 92 -112 35 l-6 -30 -17 40 c-24 54 -44 75 -72 75 -18 0 -25 -8 -33 -37 -6 -21 -11 -47 -11 -59 0 -12 -5 -36 -11 -53 -15 -44 -32 -26 -29 31 7 127 7 131 -22 147 -24 14 -28 14 -47 -3 -21 -19 -21 -19 -21 26 0 24 3 48 7 51 15 15 63 5 91 -18z m-813 -55 c8 -12 -21 -60 -35 -60 -18 0 -32 40 -19 56 13 16 45 19 54 4z m-505 -45 c12 -14 15 -14 31 1 15 14 21 14 34 4 19 -16 19 -23 -4 -51 -16 -21 -21 -22 -36 -9 -14 11 -20 12 -38 1 -18 -11 -22 -11 -33 4 -11 15 -10 22 4 41 20 28 26 29 42 9z m1488 -164 c3 -21 -11 -40 -29 -41 -10 0 -30 51 -23 61 12 19 49 5 52 -20z m-191 -37 c3 -9 13 -14 25 -11 19 5 38 -18 38 -46 0 -19 -29 -30 -44 -18 -7 6 -22 8 -34 4 -16 -4 -24 1 -33 21 -10 22 -9 29 6 46 22 24 34 25 42 4z" id="svg_308"/>
<path d="M758 4509 c-5 -35 -49 -60 -119 -69 -67 -8 -99 -18 -99 -29 0 -3 50 -33 112 -66 61 -33 121 -73 132 -89 26 -35 25 -92 -4 -207 -19 -73 -20 -84 -6 -97 19 -19 46 -8 97 36 41 36 98 65 162 82 26 7 47 16 47 21 0 16 -32 39 -55 39 -28 0 -76 39 -104 84 -12 18 -41 89 -65 157 -24 68 -47 132 -51 142 -10 25 -43 22 -47 -4z" id="svg_309"/>
<path d="M4176 4346 c-39 -120 -56 -158 -82 -183 -17 -18 -41 -33 -52 -33 -12 0 -24 -4 -27 -10 -3 -5 -19 -10 -35 -10 -50 0 -39 -23 29 -58 226 -117 259 -129 248 -94 -50 151 -51 159 -38 219 16 70 54 111 151 162 36 19 67 35 69 37 15 13 -49 51 -184 109 l-30 13 -49 -152z" id="svg_310"/>
<path d="M3060 4380 c0 -5 19 -10 43 -9 32 0 37 2 22 9 -28 12 -65 12 -65 0z" id="svg_311"/>
<path d="M1560 4308 c-18 -8 -21 -12 -9 -15 8 -2 28 3 45 12 22 11 25 15 9 14 -11 0 -31 -5 -45 -11z" id="svg_312"/>
<path d="M1465 4280 c-7 -12 2 -12 30 0 19 8 19 9 -2 9 -12 1 -25 -3 -28 -9z" id="svg_313"/>
<path d="M2135 4256 c21 -8 41 -13 44 -11 8 9 -7 16 -45 21 l-39 5 40 -15z" id="svg_314"/>
<path d="M1404 4194 c3 -9 6 -20 6 -25 0 -10 33 -12 43 -3 6 7 -35 44 -48 44 -4 0 -4 -7 -1 -16z" id="svg_315"/>
<path d="M2233 4193 c9 -9 19 -14 23 -11 10 10 -6 28 -24 28 -15 0 -15 -1 1 -17z" id="svg_316"/>
<path d="M3626 4188 c-3 -13 -5 -32 -5 -43 1 -11 5 -2 10 19 10 42 6 62 -5 24z" id="svg_317"/>
<path d="M1920 4051 l-35 -6 -7 -70 c-3 -38 -16 -115 -28 -170 -37 -162 -37 -190 0 -277 18 -42 44 -88 59 -102 27 -26 28 -26 76 -12 28 9 57 26 70 42 15 19 33 27 68 31 27 3 47 11 47 18 0 18 42 53 73 60 20 5 42 0 82 -20 29 -15 63 -25 73 -23 16 5 21 -1 25 -26 3 -17 8 -39 12 -48 10 -25 -26 -54 -79 -62 -38 -6 -47 -12 -52 -32 -8 -31 -40 -54 -75 -54 -22 0 -29 -6 -34 -30 -7 -34 -23 -45 -78 -55 -21 -4 -37 -13 -37 -21 0 -7 -10 -25 -23 -40 -18 -21 -32 -26 -64 -26 -49 1 -74 13 -126 58 -41 37 -84 47 -72 17 4 -10 30 -116 58 -237 l52 -218 65 7 c132 15 144 12 215 -50 83 -73 111 -83 162 -56 47 23 65 43 58 62 -3 8 -36 36 -73 64 -84 61 -103 85 -109 139 -7 59 25 96 88 103 57 6 102 -15 179 -85 62 -58 61 -58 144 16 29 26 97 84 152 130 54 45 111 94 126 107 30 28 28 48 -6 78 l-21 18 25 -6 c14 -4 30 -14 35 -22 6 -9 18 -25 28 -37 l19 -21 -5 23 c-3 14 3 38 15 58 18 30 25 34 63 34 39 0 44 3 54 30 9 26 15 30 48 30 21 0 112 -13 203 -29 91 -16 188 -33 215 -36 28 -3 62 -8 76 -11 24 -5 28 1 57 70 21 50 32 92 32 123 -1 60 -52 269 -71 289 -8 7 -35 17 -61 20 -41 6 -54 2 -114 -31 -100 -56 -143 -54 -282 16 -98 49 -113 54 -177 54 -54 0 -86 -6 -142 -29 -71 -28 -72 -29 -240 -24 -92 3 -180 10 -194 16 -52 21 -117 78 -148 129 -17 28 -41 55 -54 59 -12 3 -61 22 -109 40 -89 35 -149 41 -238 25z m664 -570 c4 -5 29 -12 56 -16 40 -6 55 -13 73 -37 12 -16 41 -38 64 -48 42 -18 64 -49 63 -88 -1 -16 -40 -50 -112 -96 -53 -34 -40 -9 27 49 36 32 65 65 65 75 0 20 -40 50 -68 50 -10 0 -53 -23 -96 -52 -110 -74 -114 -51 -3 30 31 24 57 46 57 51 0 4 -9 16 -21 27 -34 30 -87 24 -145 -17 -74 -53 -96 -56 -43 -5 50 48 64 72 49 81 -6 4 -10 11 -10 16 0 11 35 -5 44 -20z" id="svg_318"/>
<path d="M1595 4043 c-54 -12 -85 -26 -85 -38 0 -7 29 -36 65 -65 65 -50 85 -75 147 -175 l31 -50 15 35 c17 43 38 144 46 226 l5 62 -31 6 c-34 7 -162 6 -193 -1z" id="svg_319"/>
<path d="M2740 3966 c0 -8 71 -12 76 -4 3 4 -13 8 -35 8 -23 0 -41 -2 -41 -4z" id="svg_320"/>
<path d="M3436 3931 c-10 -11 -28 -22 -40 -24 -14 -3 -10 -5 11 -6 23 -1 35 5 43 20 16 28 7 34 -14 10z" id="svg_321"/>
<path d="M1460 3881 c0 -45 -50 -212 -85 -281 -12 -25 -25 -61 -29 -81 -12 -69 -108 -133 -228 -154 -48 -8 -50 -33 -6 -70 65 -55 31 -56 405 15 138 27 148 26 163 -10 11 -27 17 -30 60 -30 27 0 55 -3 64 -6 11 -4 16 3 21 29 5 27 1 43 -19 73 -14 22 -30 62 -37 89 -6 28 -16 69 -21 92 -22 92 -136 255 -227 326 l-61 48 0 -40z" id="svg_322"/>
<path d="M2232 3542 c-39 -6 -46 -36 -16 -72 28 -32 92 -70 119 -70 25 0 75 29 75 43 0 15 -55 70 -86 85 -26 14 -62 19 -92 14z" id="svg_323"/>
<path d="M2076 3458 c-29 -22 -12 -52 56 -98 61 -41 94 -48 129 -30 29 16 23 47 -19 92 -34 36 -45 42 -93 45 -37 3 -60 0 -73 -9z" id="svg_324"/>
<path d="M1973 3390 c-18 -11 -33 -28 -33 -37 0 -24 121 -113 154 -113 32 0 73 19 80 36 3 8 -5 23 -17 35 -25 24 -136 99 -146 99 -3 0 -21 -9 -38 -20z" id="svg_325"/>
<path d="M3145 3342 c-3 -3 -5 -14 -5 -25 0 -27 -75 -347 -116 -494 -19 -67 -34 -135 -34 -151 0 -32 18 -43 160 -93 36 -12 70 -26 76 -31 13 -10 29 3 83 70 54 66 81 80 168 88 l68 6 0 83 c0 82 1 85 42 143 23 33 51 87 63 121 11 34 31 91 45 126 13 36 20 67 15 70 -21 13 -556 95 -565 87z" id="svg_326"/>
<path d="M1510 3289 c-47 -11 -119 -26 -160 -34 -41 -8 -89 -17 -107 -21 l-32 -6 40 -50 c21 -27 39 -54 39 -60 0 -6 15 -36 33 -67 19 -31 44 -83 57 -116 26 -66 63 -128 134 -225 44 -60 46 -65 46 -131 0 -38 2 -69 4 -69 2 0 35 13 73 29 38 17 99 37 136 47 37 9 67 20 67 24 0 19 -64 286 -92 385 -17 61 -43 155 -57 210 l-26 100 -35 2 c-19 1 -73 -7 -120 -18z" id="svg_327"/>
<path d="M1852 3298 c-7 -7 -12 -18 -12 -26 0 -25 40 -71 84 -97 56 -33 100 -33 122 0 15 23 15 27 0 50 -40 61 -161 106 -194 73z" id="svg_328"/>
<path d="M2944 3165 c-31 -14 -135 -99 -283 -232 -50 -46 -98 -83 -108 -83 -9 0 -42 24 -73 54 -99 94 -177 117 -215 63 -36 -52 -16 -95 82 -173 26 -21 76 -64 109 -95 61 -55 106 -75 141 -62 10 4 49 33 87 66 68 58 71 59 115 53 75 -10 102 3 117 54 8 25 15 56 18 70 2 14 18 82 35 152 17 70 31 130 31 132 0 12 -30 12 -56 1z" id="svg_329"/>
<path d="M2715 2689 c-94 -96 -152 -108 -233 -49 l-40 29 -69 -35 c-69 -36 -70 -36 -108 -19 -22 8 -65 38 -95 65 l-56 48 -30 -61 c-15 -34 -53 -98 -83 -142 -33 -49 -61 -104 -72 -141 -23 -83 -30 -95 -89 -144 -70 -59 -83 -105 -75 -270 3 -69 11 -145 16 -170 l10 -45 92 5 c118 6 132 14 118 65 -20 72 31 135 95 119 14 -4 37 -24 51 -45 l25 -38 64 74 c88 101 137 125 260 125 l92 0 50 -39 c33 -27 59 -59 78 -96 24 -50 27 -68 27 -153 0 -87 -3 -104 -32 -170 -31 -70 -32 -74 -14 -88 10 -7 21 -14 25 -14 14 0 38 -59 38 -93 0 -40 -30 -72 -77 -82 -33 -7 -42 -18 -24 -30 5 -3 24 -42 41 -87 29 -74 31 -91 28 -168 -4 -104 -32 -169 -89 -209 -21 -14 -38 -29 -39 -33 0 -17 84 -68 112 -68 72 0 119 -44 209 -198 l37 -63 21 27 c11 15 26 45 32 68 24 96 55 177 98 260 44 84 46 93 46 170 0 114 -6 124 -261 435 -12 14 -40 62 -63 106 -47 90 -61 170 -42 241 25 91 183 201 311 215 91 10 100 23 100 151 0 62 -8 137 -21 201 -18 86 -20 109 -10 146 7 24 8 47 4 51 -4 4 -48 22 -96 40 -57 22 -94 42 -104 57 -10 14 -33 28 -60 35 -39 9 -44 14 -40 34 4 22 1 24 -39 24 -23 0 -48 2 -56 5 -8 3 -35 -17 -63 -46z" id="svg_330"/>
<path d="M1940 2675 c0 -8 -17 -19 -40 -26 -34 -10 -40 -16 -40 -38 0 -25 -5 -28 -70 -43 -38 -9 -104 -32 -147 -50 l-78 -33 -6 -85 c-6 -82 -9 -91 -92 -255 l-87 -170 2 -310 1 -310 30 -95 c16 -52 44 -122 62 -155 19 -33 41 -85 49 -116 10 -35 28 -67 47 -85 28 -27 37 -29 128 -34 86 -5 102 -9 133 -32 19 -15 62 -40 96 -56 66 -32 128 -81 266 -213 50 -47 99 -91 110 -96 12 -6 96 -9 220 -6 154 3 213 1 253 -10 29 -8 55 -12 58 -9 12 12 3 46 -24 101 -35 67 -81 111 -119 111 -42 1 -107 35 -159 83 -30 27 -68 51 -101 61 -61 21 -138 75 -183 131 -35 44 -99 170 -99 196 0 21 -38 69 -54 69 -28 0 -36 -22 -16 -48 29 -36 26 -96 -5 -127 -26 -27 -51 -31 -89 -14 -43 20 -56 86 -30 153 6 15 -6 21 -92 45 -57 16 -164 89 -216 148 -38 42 -61 114 -55 173 6 68 24 107 72 151 35 33 36 36 30 84 -15 121 -22 352 -13 398 7 32 26 69 58 111 56 74 70 100 99 186 14 43 36 83 64 115 51 58 70 91 62 105 -9 15 -25 12 -25 -5z" id="svg_331"/>
<path d="M2422 1880 c-33 -20 -42 -60 -11 -51 8 2 30 6 50 9 30 3 40 -1 58 -23 11 -15 21 -34 21 -43 0 -39 -28 -100 -62 -134 -48 -48 -96 -58 -137 -29 -16 12 -32 21 -35 21 -3 0 -6 -18 -6 -39 0 -56 -15 -88 -49 -106 -45 -23 -63 -19 -106 26 -49 50 -85 70 -113 62 -27 -7 -28 -19 -3 -32 25 -14 45 -65 37 -96 -4 -16 -20 -32 -41 -42 -36 -17 -45 -37 -21 -46 25 -10 100 13 143 43 51 37 95 39 128 6 24 -24 24 -28 18 -119 -5 -88 -4 -98 21 -153 53 -117 112 -175 188 -189 34 -7 39 -5 57 26 27 43 26 92 0 172 -29 89 -80 152 -159 196 -62 35 -65 39 -68 79 -4 57 10 78 66 96 112 38 200 184 178 299 -15 79 -85 109 -154 67z m29 -635 c94 -49 129 -206 52 -236 -35 -13 -64 -5 -104 28 -66 56 -88 155 -44 198 28 29 54 31 96 10z" id="svg_332"/>
<path d="M2391 1200 c-18 -11 -7 -70 20 -104 64 -82 120 -28 63 59 -21 32 -66 56 -83 45z" id="svg_333"/>
<path d="M2403 1755 c-28 -28 -34 -41 -31 -67 2 -26 8 -34 26 -36 42 -6 100 80 84 126 -7 23 -44 12 -79 -23z" id="svg_334"/>
<path d="M1856 1521 c-14 -22 5 -49 45 -65 50 -20 93 -20 109 0 11 13 9 19 -13 41 -20 20 -39 27 -80 31 -34 3 -57 0 -61 -7z" id="svg_335"/>
<path d="M2035 1870 c-13 -42 54 -67 78 -29 17 28 1 49 -37 49 -26 0 -36 -5 -41 -20z" id="svg_336"/>
<path d="M1998 1119 c-33 -19 -15 -69 23 -69 17 0 49 25 49 38 -1 28 -46 47 -72 31z" id="svg_337"/>
</g><g id="layer109" fill="#ead2d1" stroke="none">
<path d="M2212 3531 c-24 -15 -8 -54 36 -88 24 -18 55 -36 69 -39 29 -8 93 19 93 39 0 15 -55 69 -87 86 -25 13 -92 14 -111 2z" id="svg_338"/>
<path d="M2437 3513 c-18 -5 -19 -21 -1 -66 9 -24 -30 -55 -80 -62 -38 -6 -47 -12 -52 -31 -8 -29 -40 -54 -71 -54 -17 0 -27 -10 -37 -35 -12 -29 -23 -37 -62 -47 -30 -8 -49 -20 -54 -33 -9 -23 -37 -49 -64 -59 -31 -11 -93 13 -141 54 -26 22 -54 40 -64 40 -18 0 -17 -7 9 -102 15 -57 40 -163 55 -235 33 -150 23 -141 130 -123 88 14 114 6 189 -61 55 -48 73 -59 102 -59 38 0 83 19 104 45 16 20 -1 40 -83 98 -31 22 -66 55 -77 72 -48 78 -5 165 82 165 53 0 90 -19 167 -87 l59 -52 29 22 c15 12 75 62 133 112 58 50 128 109 155 129 58 44 65 53 65 83 0 47 -77 58 -131 18 -116 -85 -138 -86 -46 -2 37 34 67 70 67 79 0 17 -47 48 -72 48 -7 0 -47 -23 -88 -50 -41 -27 -78 -50 -82 -50 -21 0 11 36 64 71 67 46 74 74 25 97 -35 17 -73 5 -141 -43 -27 -19 -53 -35 -58 -35 -17 0 11 37 46 61 41 28 48 45 28 77 -14 22 -55 28 -105 15z" id="svg_339"/>
<path d="M2088 3463 c-19 -5 -30 -27 -22 -45 8 -20 93 -80 128 -90 40 -12 86 4 86 31 0 25 -44 77 -81 96 -27 14 -75 18 -111 8z" id="svg_340"/>
<path d="M1960 3380 c-11 -11 -20 -24 -20 -29 0 -5 29 -32 64 -60 66 -53 94 -61 141 -39 43 20 32 48 -42 101 -73 52 -111 59 -143 27z" id="svg_341"/>
<path d="M3146 3329 c-2 -8 -21 -90 -41 -184 -21 -93 -48 -206 -60 -250 -60 -208 -65 -249 -37 -260 69 -28 227 -85 236 -85 6 0 32 27 59 60 57 72 85 88 174 96 l68 6 0 83 c0 82 1 85 42 143 23 33 51 87 63 121 11 34 32 91 45 127 18 47 21 66 12 69 -21 8 -426 74 -493 81 -50 5 -65 4 -68 -7z" id="svg_342"/>
<path d="M1580 3303 c-14 -2 -59 -13 -100 -23 -41 -10 -118 -26 -172 -35 l-96 -18 39 -49 c21 -28 39 -54 39 -60 0 -6 15 -36 33 -67 19 -31 44 -83 57 -116 26 -66 63 -128 134 -225 44 -60 46 -65 46 -132 0 -63 2 -69 18 -63 68 30 193 75 225 80 36 7 38 9 32 39 -20 97 -97 402 -119 470 -14 43 -26 84 -26 90 0 7 -7 36 -15 64 -17 55 -22 58 -95 45z" id="svg_343"/>
<path d="M1849 3286 c-15 -32 15 -76 75 -111 60 -35 106 -33 127 6 14 28 -3 53 -64 94 -65 44 -121 48 -138 11z" id="svg_344"/>
<path d="M2944 3164 c-33 -16 -162 -122 -287 -236 -46 -43 -92 -78 -102 -78 -9 0 -45 25 -78 57 -99 91 -175 113 -212 60 -33 -47 -11 -101 63 -157 26 -19 79 -65 118 -101 105 -97 132 -97 238 -4 l62 54 79 3 79 3 43 180 c23 99 45 190 48 201 7 29 -14 36 -51 18z" id="svg_345"/>
<path d="M2392 1969 c-39 -15 -146 -130 -170 -182 -12 -26 -25 -75 -29 -108 -3 -33 -9 -58 -12 -56 -107 58 -144 69 -244 74 -98 5 -104 4 -157 -24 -31 -17 -68 -47 -87 -72 -84 -109 -6 -254 174 -321 75 -28 218 -28 273 0 22 11 41 20 43 20 2 0 7 -36 10 -81 5 -66 13 -92 44 -152 21 -39 61 -95 89 -123 65 -64 123 -88 199 -82 48 4 62 10 91 40 29 29 37 45 44 99 16 109 13 139 -25 218 -25 52 -55 93 -99 136 l-63 62 58 51 c40 37 69 74 93 123 34 67 36 78 36 166 0 106 -16 151 -70 197 -28 23 -40 26 -103 25 -40 0 -83 -4 -95 -10z m177 -64 c40 -35 54 -83 49 -169 -8 -121 -83 -233 -182 -271 -62 -24 -60 -44 12 -94 65 -46 101 -88 140 -163 37 -71 44 -206 13 -255 -27 -43 -85 -61 -142 -44 -60 18 -142 100 -182 180 -29 60 -32 75 -33 166 -2 120 -12 133 -71 93 -101 -69 -254 -63 -369 15 -67 44 -94 88 -94 150 0 44 4 53 36 83 100 95 276 80 424 -37 28 -22 55 -37 60 -34 6 3 10 42 10 85 0 103 27 177 89 243 55 60 89 76 158 77 41 0 58 -5 82 -25z" id="svg_346"/>
<path d="M2410 1761 c-66 -66 -40 -150 29 -93 24 19 52 89 44 109 -9 22 -43 14 -73 -16z" id="svg_347"/>
<path d="M1854 1516 c-19 -49 121 -103 156 -60 11 13 9 19 -13 41 -33 33 -132 46 -143 19z" id="svg_348"/>
<path d="M2390 1194 c-19 -22 3 -87 41 -118 35 -30 42 -31 59 -11 24 29 -12 105 -60 130 -25 13 -30 13 -40 -1z" id="svg_349"/>
<path d="M2577 1442 c-15 -16 -15 -20 6 -45 l22 -28 0 45 c0 51 -4 55 -28 28z" id="svg_350"/>
</g></g></svg>